<svg xmlns="http://www.w3.org/2000/svg" width="100" height="75.62" viewBox="0 0 100 75.62">
  <g id="tip-1" transform="translate(-695 -975.481)">
    <path id="Path_1038" data-name="Path 1038" d="M94.484,24.563H85.091L82.4,9.319a6.552,6.552,0,0,0-7.547-5.3L6.386,16.1A6.523,6.523,0,0,0,1.1,23.651l7.3,41.4a6.529,6.529,0,0,0,6.4,5.4,6.314,6.314,0,0,0,1.15-.1l2.492-.438v3.13a6.524,6.524,0,0,0,6.518,6.514h69.52A6.524,6.524,0,0,0,101,73.034V31.077A6.524,6.524,0,0,0,94.484,24.563Zm.267,6.514v6.13H24.723l.242-6.393ZM14.558,63.966,8.437,29.26l-.963-7.009L76.248,10.4l2.5,14.165H24.964a6.524,6.524,0,0,0-6.518,6.514V63.445ZM94.484,73.3,24.7,73.034V48.272H94.751V73.034A.265.265,0,0,1,94.484,73.3Z" transform="translate(693.998 971.554)" fill="#c4986f"/>
    <g id="Group_1850" data-name="Group 1850" transform="translate(716 999)">
      <path id="Path_1045" data-name="Path 1045" d="M29.779,30.512H22.756a1.756,1.756,0,0,1,0-3.512h7.023a1.756,1.756,0,0,1,0,3.512Z" transform="translate(10.582)" fill="#c4986f" fill-rule="evenodd"/>
      <path id="Path_1046" data-name="Path 1046" d="M24.559,30.512H8.756a1.756,1.756,0,0,1,0-3.512h15.8a1.756,1.756,0,0,1,0,3.512Z" fill="#c4986f" fill-rule="evenodd"/>
      <path id="Path_1047" data-name="Path 1047" d="M8.756,32H19.291a1.756,1.756,0,0,1,0,3.512H8.756a1.756,1.756,0,0,1,0-3.512Z" transform="translate(0 3.779)" fill="#c4986f" fill-rule="evenodd"/>
    </g>
  </g>
</svg>
