<svg xmlns="http://www.w3.org/2000/svg" width="126.465" height="62.581" viewBox="0 0 126.465 62.581">
  <g id="tip-3" transform="translate(-1 -23)">
    <path id="Path_1041" data-name="Path 1041" d="M15.974,46.449A8.474,8.474,0,1,0,7.5,37.974,8.484,8.484,0,0,0,15.974,46.449Zm0-14.341a5.867,5.867,0,1,1-5.867,5.867A5.874,5.874,0,0,1,15.974,32.108Z" transform="translate(1.974 1.974)" fill="#c4986f"/>
    <path id="Path_1042" data-name="Path 1042" d="M34.9,51.683V41.253h-.066c.034-.432.066-.864.066-1.3a16.94,16.94,0,0,0-33.831-1.3H1v29.8A17.067,17.067,0,0,0,16.645,85.506v.074h110.82v-33.9ZM17.949,28.215A11.734,11.734,0,1,1,6.215,39.949,11.747,11.747,0,0,1,17.949,28.215ZM6.215,68.445V52.151a16.947,16.947,0,0,0,6.519,3.916v4.742h2.608V56.676c.43.066.863.123,1.3.156V56.9H33.594v3.911H36.2V56.9H54.454v3.911h2.608V56.9H75.314v3.911h2.608V56.9H96.175v3.911h2.608V56.9H106.6V80.366H98.782V73.847H96.175v6.519H88.352V76.454H85.744v3.911H77.922V73.847H75.314v6.519H67.492V76.454H64.884v3.911H57.062V73.847H54.454v6.519H46.632V76.454H44.024v3.911H36.2V73.847H33.594v6.519H25.771V76.454H23.164v3.911H17.949v-.007a11.556,11.556,0,0,1-2.608-.306V73.847H12.734V79.1A11.934,11.934,0,0,1,6.215,68.445ZM122.25,80.366H109.212V56.9H122.25Z" transform="translate(0 0)" fill="#c4986f"/>
    <path id="Path_1043" data-name="Path 1043" d="M89.911,62.823A3.911,3.911,0,1,0,86,58.911,3.916,3.916,0,0,0,89.911,62.823Zm0-5.215a1.3,1.3,0,1,1-1.3,1.3A1.306,1.306,0,0,1,89.911,57.608Z" transform="translate(25.82 9.72)" fill="#c4986f"/>
  </g>
</svg>
