<svg xmlns="http://www.w3.org/2000/svg" width="71" height="71" viewBox="0 0 71 71">
  <g id="tip-2" transform="translate(-1 -1)">
    <path id="Path_1039" data-name="Path 1039" d="M36.5,2A34.5,34.5,0,1,0,71,36.5,34.5,34.5,0,0,0,36.5,2Zm0,64.392A29.892,29.892,0,1,1,66.392,36.5h0A29.918,29.918,0,0,1,36.5,66.392Z" transform="translate(0 0)" fill="#c4986f" stroke="#c4986f" stroke-width="2"/>
    <path id="Path_1040" data-name="Path 1040" d="M26.924,6.9a2.291,2.291,0,0,0-2.292,2.292h0V27.033h-13.8a2.292,2.292,0,1,0,0,4.584H26.924a2.268,2.268,0,0,0,2.292-2.243V9.192A2.291,2.291,0,0,0,26.924,6.9Z" transform="translate(9.576 7.175)" fill="#c4986f" stroke="#c4986f" stroke-width="2"/>
  </g>
</svg>
