<svg xmlns="http://www.w3.org/2000/svg" xmlns:xlink="http://www.w3.org/1999/xlink" width="188" height="188" viewBox="0 0 188 188">
  <defs>
    <filter id="Ellipse_86" x="7" y="10" width="175" height="175" filterUnits="userSpaceOnUse">
      <feOffset dy="3" input="SourceAlpha"/>
      <feGaussianBlur stdDeviation="3" result="blur"/>
      <feFlood flood-opacity="0.161"/>
      <feComposite operator="in" in2="blur"/>
      <feComposite in="SourceGraphic"/>
    </filter>
    <linearGradient id="linear-gradient" x1="0.5" x2="0.5" y2="1" gradientUnits="objectBoundingBox">
      <stop offset="0" stop-color="#0e65ba"/>
      <stop offset="1" stop-color="#07335d"/>
    </linearGradient>
  </defs>
  <g id="ic-cart-success" transform="translate(-645 -180.313)">
    <g id="Ellipse_85" data-name="Ellipse 85" transform="translate(645 180.313)" fill="#fff" stroke="#0f6db6" stroke-width="2">
      <circle cx="94" cy="94" r="94" stroke="none"/>
      <circle cx="94" cy="94" r="93" fill="none"/>
    </g>
    <g transform="matrix(1, 0, 0, 1, 645, 180.31)" filter="url(#Ellipse_86)">
      <circle id="Ellipse_86-2" data-name="Ellipse 86" cx="78.5" cy="78.5" r="78.5" transform="translate(16 16)" fill="#fff"/>
    </g>
    <g id="Group_1975" data-name="Group 1975" transform="translate(684.118 183.639)">
      <g id="Group_1583" data-name="Group 1583" transform="translate(0 35.479)">
        <rect id="Rectangle_183" data-name="Rectangle 183" width="110" height="110" transform="translate(-0.118 0.194)" fill="none"/>
        <g id="buy" transform="translate(4.283 14.133)">
          <path id="Path_149" data-name="Path 149" d="M99.266,49.665a7.061,7.061,0,0,0-5.516-2.634H16.887L16.2,42.112A7.121,7.121,0,0,0,9.178,36H3.151a3.151,3.151,0,1,0,0,6.3H9.178a.791.791,0,0,1,.78.679l8.506,60.964a7.121,7.121,0,0,0,7.023,6.11H28.9a9.454,9.454,0,1,0,17.824,0H63.568a9.454,9.454,0,1,0,17.824,0h6.845a3.151,3.151,0,1,0,0-6.3H25.487a.791.791,0,0,1-.78-.679l-.785-5.624H85.984a7.13,7.13,0,0,0,6.934-5.605l7.766-36.24A7.058,7.058,0,0,0,99.266,49.665Zm-58.3,63.544a3.151,3.151,0,1,1-3.151-3.151A3.155,3.155,0,0,1,40.967,113.209Zm34.665,0a3.151,3.151,0,1,1-3.151-3.151A3.155,3.155,0,0,1,75.632,113.209ZM94.521,54.287,86.755,90.526a.794.794,0,0,1-.771.624H23.042L17.766,53.334H93.75a.787.787,0,0,1,.771.953Z" transform="translate(0 -36.002)" stroke="#505050" stroke-width="0.2" fill="url(#linear-gradient)"/>
        </g>
      </g>
      <g id="Group_1977" data-name="Group 1977" transform="translate(82.785 0)">
        <ellipse id="Ellipse_84" data-name="Ellipse 84" cx="27.5" cy="28" rx="27.5" ry="28" transform="translate(0.098 -0.326)" fill="url(#linear-gradient)"/>
        <path id="Path_9187" data-name="Path 9187" d="M143.682,157.5l2.294-2.757,8-9.6a2.26,2.26,0,0,1,2.522-.831,2.206,2.206,0,0,1,1.649,1.981,2.4,2.4,0,0,1-.665,1.867q-2.545,3.037-5.075,6.086-3.445,4.128-6.9,8.253a2.3,2.3,0,0,1-3.661.011q-2.9-3.451-5.768-6.925a2.289,2.289,0,0,1,.229-3.3,2.348,2.348,0,0,1,3.363.4C141,154.285,142.327,155.877,143.682,157.5Z" transform="translate(-118.521 -125.545)" fill="#fff" fill-rule="evenodd"/>
      </g>
    </g>
    <circle id="Ellipse_87" data-name="Ellipse 87" cx="10" cy="10" r="10" transform="translate(659 324.313)" fill="url(#linear-gradient)"/>
  </g>
</svg>
