<svg xmlns="http://www.w3.org/2000/svg" width="24" height="24" viewBox="0 0 24 24">
  <g id="ic-cart" transform="translate(-1773 -64)">
    <rect id="Rectangle_183" data-name="Rectangle 183" width="24" height="24" transform="translate(1773 64)" fill="none"/>
    <g id="buy" transform="translate(1774 30.998)">
      <path id="Path_149" data-name="Path 149" d="M21.659,38.983a1.541,1.541,0,0,0-1.2-.575H3.685l-.15-1.073A1.554,1.554,0,0,0,2,36H.688a.688.688,0,1,0,0,1.375H2a.173.173,0,0,1,.17.148l1.856,13.3a1.554,1.554,0,0,0,1.532,1.333h.746a2.063,2.063,0,1,0,3.889,0H13.87a2.063,2.063,0,1,0,3.889,0h1.494a.688.688,0,0,0,0-1.375H5.561a.173.173,0,0,1-.17-.148L5.22,49.41H18.761a1.556,1.556,0,0,0,1.513-1.223l1.694-7.907a1.54,1.54,0,0,0-.309-1.3ZM8.939,52.848a.688.688,0,1,1-.688-.688A.688.688,0,0,1,8.939,52.848Zm7.564,0a.688.688,0,1,1-.688-.688A.688.688,0,0,1,16.5,52.848Zm4.122-12.857L18.93,47.9a.173.173,0,0,1-.168.136H5.028L3.876,39.784H20.456a.172.172,0,0,1,.168.208Z" fill="#505050" stroke="#505050" stroke-width="0.2"/>
    </g>
  </g>
</svg>
