<svg xmlns="http://www.w3.org/2000/svg" width="13.091" height="16" viewBox="0 0 13.091 16">
  <g id="ic-delete" transform="translate(-48)">
    <path id="Path_800" data-name="Path 800" d="M59.832,2.01H57.063v-.5A1.509,1.509,0,0,0,55.552,0H53.538a1.509,1.509,0,0,0-1.51,1.508v.5H49.259A1.258,1.258,0,0,0,48,3.267V4.272a.5.5,0,0,0,.5.5H60.587a.5.5,0,0,0,.5-.5V3.267A1.258,1.258,0,0,0,59.832,2.01Zm-6.8-.5a.5.5,0,0,1,.5-.5h2.014a.5.5,0,0,1,.5.5v.5H53.035Z" fill="#848484"/>
    <path id="Path_801" data-name="Path 801" d="M73.522,184a.157.157,0,0,0-.157.165l.415,8.7a1.508,1.508,0,0,0,1.509,1.436h7.648a1.508,1.508,0,0,0,1.509-1.436l.415-8.7A.157.157,0,0,0,84.7,184Zm7.606,1.257a.5.5,0,0,1,1.007,0v6.534a.5.5,0,0,1-1.007,0Zm-2.518,0a.5.5,0,0,1,1.007,0v6.534a.5.5,0,0,1-1.007,0Zm-2.518,0a.5.5,0,0,1,1.007,0v6.534a.5.5,0,0,1-1.007,0Z" transform="translate(-24.567 -178.304)" fill="#848484"/>
  </g>
</svg>
