<svg xmlns="http://www.w3.org/2000/svg" width="14" height="14" viewBox="0 0 14 14">
  <path id="ic-edit" d="M14.131,4.415A7.342,7.342,0,0,0,11.575,1.88L12.455,1a3.142,3.142,0,0,1,1.909.636A3.142,3.142,0,0,1,15,3.545Zm-7.4,7.4H4.182V9.273l.305-.305a5.329,5.329,0,0,1,2.545,2.545ZM13.4,5.149,7.767,10.778A7.388,7.388,0,0,0,6.655,9.359,7.351,7.351,0,0,0,5.211,8.243L10.851,2.6A5.322,5.322,0,0,1,13.4,5.149ZM2.909,2.909V13.091H13.091V8.636L15,6.7v7.024A1.273,1.273,0,0,1,13.727,15H2.273A1.273,1.273,0,0,1,1,13.727V2.273A1.273,1.273,0,0,1,2.273,1H9.279L7.369,2.909Z" transform="translate(-1 -1)" fill="#0a549f"/>
</svg>
