<svg id="ic-fb" xmlns="http://www.w3.org/2000/svg" width="24" height="24" viewBox="0 0 24 24">
  <rect id="Rectangle_190" data-name="Rectangle 190" width="18.339" height="23.155" transform="translate(3.018 0.845)" fill="#fff"/>
  <path id="facebook_1_" data-name="facebook (1)" d="M20.768,0H3.236A3.233,3.233,0,0,0,0,3.232V20.755a3.233,3.233,0,0,0,3.234,3.232h8.647l.015-8.572H9.669a.526.526,0,0,1-.526-.523l-.011-2.763a.526.526,0,0,1,.526-.527h2.224V8.932c0-3.1,1.893-4.785,4.659-4.785H18.81a.526.526,0,0,1,.526.525V7a.526.526,0,0,1-.525.525H17.418c-1.5,0-1.8.714-1.8,1.762V11.6h3.3a.526.526,0,0,1,.522.587l-.328,2.763a.526.526,0,0,1-.522.464H15.638l-.015,8.572h5.145A3.233,3.233,0,0,0,24,20.755V3.232A3.233,3.233,0,0,0,20.768,0Z" transform="translate(-0.002 0)" fill="#404040"/>
</svg>
