<svg xmlns="http://www.w3.org/2000/svg" width="294.597" height="179.355" viewBox="0 0 294.597 179.355">
  <g id="ic-lunas" transform="translate(-205.299 141.37) rotate(-19)" opacity="0.1">
    <path id="Path_83" data-name="Path 83" d="M317.118,21.389c-.834-.228-2.34-.221-3.175-.449,1,2.039-1.208,5.944-1.165,9.22H341.21c1.455-.43,2.385-.879.674-1.562,2.49.51,1.624-.336,3.175-.675-2.237-.958-4.906-.874-8.255-.451-1.377-.038-.286.8-.635,1.126-3.292-.416-3.935.423-6.349,0-.3.48.909.428,1.9.451a2.087,2.087,0,0,1-1.271.451c-.54-.042-.6.087-.634.225-2.331-.463-.038-1.175-.635-2.253H333c.078-.4-.78-.475-.637-.9a8.871,8.871,0,0,0,3.809-.675,75.888,75.888,0,0,0,8.891,1.577c1.234-.686,2.4-1.4,3.47-2.143a3.3,3.3,0,0,1,.971-.7c2.239-1.692,3.881-3.515,4.439-5.453h-36.2C317.4,19.864,318.542,21.083,317.118,21.389Zm9.525,5.181c-.928-.195-2.46-.179-1.9-.9h1.9Zm17.146-6.532c2-.033,2.183.578,2.54,1.125-1.5,0-1.868.39-3.811.226.1-.263-.139-.4-.635-.449C341.777,20.376,342.862,20.233,343.79,20.038Zm-17.146,4.055c-1.457.386,2.742.663,3.175,1.126A18.631,18.631,0,0,1,333,24.768c3.548.994,9.244,1.226,12.7,2.253-4.617-.615-9.041-1.3-13.336-2.026-.555.721.978.7,1.9.9-4.641-.023-12.072-2.914-19.688-3.379,4.17-.585,10.827,1.668,16.513,2.028C332.021,25.134,327.583,24.281,326.643,24.093Z" transform="translate(75.761)" fill="#f04a00"/>
    <path id="Path_84" data-name="Path 84" d="M344.971,25.514c-1.3-.146-5.35-.172-6.678-.409-.045.225-.066.44-.1.66h7.4A3.5,3.5,0,0,1,344.971,25.514Z" transform="translate(94.594 4.395)" fill="#f04a00"/>
    <path id="Path_85" data-name="Path 85" d="M372.568,20.925v-.961c-1.518.3-2.993.688-3.675.839C370.2,20.814,371.45,20.847,372.568,20.925Z" transform="translate(117.339 0.586)" fill="#f04a00"/>
    <path id="Path_86" data-name="Path 86" d="M220.366,27.894l.1.023V27.2h8.151c-.12-.639-.063-1.213,1.906-1.111-.266.425-1.784.409-1.274,1.111h2.585c1.37-.329.2-1.562.6-2.237-6.734-.615-12.007-1.75-20.322-1.8-.905,1.3,2.006,1.24,3.174,1.8.092.818.46,3.182-.635,4.279h5.08c-.212.9-5.209.1-6.349.675.251.575,1.821.679,1.892,1.316a35.267,35.267,0,0,0,5.195-.2V28.885C220.263,28.615,220.352,28.241,220.366,27.894Zm-2.538-2.477c1.278-1.931,6.377-1.247,7.618.225C224.074,26.04,221.235,25.044,217.828,25.417Z" transform="translate(1.047 2.957)" fill="#f04a00"/>
    <path id="Path_87" data-name="Path 87" d="M315.629,19.173H310.45c1.628.178,3.21.371,4.582.639C315.607,19.732,315.652,19.465,315.629,19.173Z" transform="translate(74.037)" fill="#f04a00"/>
    <path id="Path_88" data-name="Path 88" d="M308.922,20.038a6.118,6.118,0,0,0-2.685-.865h-2.968C305.114,19.474,306.989,19.767,308.922,20.038Z" transform="translate(68.716)" fill="#f04a00"/>
    <path id="Path_89" data-name="Path 89" d="M342.088,25.344c.113.014.244.026.31.04C342.159,25.332,342.075,25.325,342.088,25.344Z" transform="translate(97.477 4.565)" fill="#f04a00"/>
    <path id="Path_90" data-name="Path 90" d="M227.129,19.587c-.42-.07-.6-.223-.677-.414h-5.486c.192.528-.5,1.429-3.362,1.541-.872-.616-.926-1.107-.59-1.541h-6.487v6.649c1.724.063,3.3.035,3.266-.827v.9c8.085-.014,12.148,1.4,19.688,1.577a80.764,80.764,0,0,1,.089-8.3h-5.923A.942.942,0,0,1,227.129,19.587Zm-3.174,6.534c-2.714.063-.042-.987,0-1.353A.683.683,0,1,1,223.955,26.121Z" fill="#f04a00"/>
    <path id="Path_91" data-name="Path 91" d="M212.524,23.184c-.693-.01-1.363-.028-2-.047v2.538C211.337,24.9,212.741,24.326,212.524,23.184Z" transform="translate(0 2.937)" fill="#f04a00"/>
    <path id="Path_92" data-name="Path 92" d="M214.428,28.01c-.059-.881-2.566-.893-3.811-1.353l-.091.052v1.88A9.977,9.977,0,0,1,214.428,28.01Z" transform="translate(0 5.545)" fill="#f04a00"/>
    <path id="Path_93" data-name="Path 93" d="M286.7,69.177c1.069-.8,3.036-1.765,4.358-2.613H255.27C266.489,67.17,275.205,68.664,286.7,69.177Z" transform="translate(33.152 35.114)" fill="#f04a00"/>
    <path id="Path_94" data-name="Path 94" d="M364.692,36.618c1.13.127,2.08.456,2.234.992.205.527-.869.8-2.234.893v4.309a14.042,14.042,0,0,1,2.869.2c.529,1.229-.665,1.844-2.869,2.1v5.994c.11.082.23.158.329.242,1.673-.068,1.636.472,1.9.9a3.536,3.536,0,0,1-2.234-.016v.771c1.751.468,2.321-.51,2.869-.98a10.23,10.23,0,0,1,1.267,1.351c-.616-.007-.491-.277-.634-.451a16.614,16.614,0,0,0-3.5.684v3.2c3.821-.653,7.455-1.393,10.989-2.2V37.664a5.155,5.155,0,0,1-3.675.848c-.225-.3-1.118-.355-1.269-.677-.138-.947,2.841-.792,3.809-1.351a2.681,2.681,0,0,1,1.135.341V34.069c-3.619.649-7.268,1.29-10.989,1.9Zm9.854,9.1c1.25-.428.378,1.807.635,2.477C373.929,48.627,374.8,46.391,374.546,45.721Zm-2.54-2.928c-.926.571-1.212,1.372-3.811,1.351V43.016C370.136,43.181,370.063,42.627,372.006,42.793Zm-2.54-3.832V40.54a9.458,9.458,0,0,0-3.811-.451v-.9A14.132,14.132,0,0,1,369.466,38.961Z" transform="translate(114.226 11.037)" fill="#f04a00"/>
    <path id="Path_95" data-name="Path 95" d="M373.277,48.583c-.721.924-4.828,1.151-7.622.675-1.328.131.914.851.634,1.353a6.926,6.926,0,0,1-1.6.012v6.025c.949.292,1.751.693.963,1.4-.338,0-.641.012-.963.017V70.247c3.482.367,5.42,1.283,5.409,2.892a34.549,34.549,0,0,0,5.58-2.185V46.015c-1.633.411-3.275.818-4.944,1.217C371.132,47.843,373.386,47.792,373.277,48.583Zm-3.175,3.6c3.605.508,3.44,1.706-.635,2.028C367.041,53.616,367.558,52.648,370.1,52.187Zm-3.175,16c-.054-.357.3-.86-.637-.9.071-.576,2.127-.447,3.813-.451C370.6,67.832,369.5,68.269,366.926,68.182Zm2.54-4.506v-1.8c2.763-.23,2.918.465,4.446.675C373.486,63.3,372.279,63.773,369.466,63.677Z" transform="translate(114.226 19.888)" fill="#f04a00"/>
    <path id="Path_96" data-name="Path 96" d="M486.868,65.127c-3.827.658-6.257.581-7.949.122v3.12c5.85-.442,11.958-.1,7.949,2.615-2.671-.46-5.98-.695-7.949-1.4V71.3H456.995c-.2.2-.406.393-.609.585.145-.188.308-.392.458-.585H429.062c9.869,3.534,20.992,7.147,30.5,10.722h-.632c-5.756-2.465-12.956-4.417-19.051-6.758a8.944,8.944,0,0,1-2.54.225c1.6-1.365-2.648-1.475-3.813-2.477-.86.07-.527.564-.635.9-5.916.385-5.456-.421-10.8-.451,1.96-.5.439-1.147.552-2.162H409.351c-6.988,3.642-13.743,7.369-21.553,10.722h-.634c7.04-3.616,15.385-6.769,21.473-10.722h-12.57a22.074,22.074,0,0,1-4.459,1.034,15.026,15.026,0,0,1,3.973-1.034h-8.456a19.714,19.714,0,0,0,4.483.585c-.418.675-1.356-.216-2.54,0,2.305.834,7.213.745,6.985,2.477-2.248.78-5.557.272-7.62-.226.67-1.395-.266-2.22-1.793-2.836h-9.331c-9.786,1.49-20.58,2.624-30.153,4.189.024,1.353,5.174,1.092,8.255,1.353,4,.336,7.161.977,12.7.9.106.489-2.253.1-3.175.226-7.1-.343-13.983-1.689-20.956-1.353-.548-.181-.378-.616-1.273-.675-4.4.467-7.4,1.431-12.065,1.8-2.338,1.2-3.109,2.953-5.08,4.281h-.635c.682-1.111,2.739-1.732,3.175-2.928-7.5-1.374-14.76.353-16.513,2.928h-.634c1.053-.752,2.124-1.5,3.177-2.255a75.505,75.505,0,0,0-9.528,1.353h5.08v.9h-4.445c-.921-1.177-5.313-.461-6.983,0H296.35a32.509,32.509,0,0,1,5.08-.677c-.313-.639-3.316-.324-2.54-1.351,2.345-.005,4.375.1,4.448.9,11.541-.566,15.134-3.79,16.509-6.534-8.536-.59-18.149-2.556-26.037-1.351-1.182-.4.277-.658.632-1.126-2.329-.148-4.267-.439-6.979-.451-.118.491.517.717,1.9.675-.681.961,4.457,3.973,1.273,2.253a28,28,0,0,1-4.163-3.062H273.359c-5.5.775-12.174,1.649-10.033,2.613-.186.534-1.717-.252-1.9-.451-8.059,1.786-18.1,2.4-22.227,4.506,3.809.9,8.8,1.386,10.16,3.153-5.642.834-10.869-.317-12.068-1.8-1.443.313-2.46.78-3.807,1.126-1.247-.31-.343-1.381-1.273-1.8-6.067,1.151-12.7,2.1-18.416,3.379h-1.269c6.135-1.353,13.195-2.378,19.685-3.605-.472-1.443.742-2.291.637-3.6,3.86.313,5.571,2.232,8.887,2.028-1.685-1.238-8.062-1.9-5.712-3.83-8.1-.682-20.188,1.534-23.5,1.8,2.862-.261,3.741-1.226,7.622-1.126.144-.4-.641-1.128,1.267-.9.181.366-.6.388-.635.677,8.893-.9,19.911-1.048,29.215-1.8,2.834-.176,4.309.346.635.226-2.657.185-5.113.439-8.259.449-.1.489,2.255.1,3.177.226-2.371.587-.261,2.761-1.9,3.6.79.484,2.6-.559,4.445-.449-.776-.4-3.68-.047-2.54-1.126h1.9c1.913-.228,1.128.5,1.273.9,7.972-1.542,14.937-2.806,22.841-4.189H256.979c1.588.458,3.424,1.109,2.538,1.711a26.208,26.208,0,0,0-3.955-1.711H221.516V60.171H210.527V68.8c.244-.024.475-.05.726-.071a1.6,1.6,0,0,1-.726,2.328v5.587a14.306,14.306,0,0,1,4.535-.254c.411,1.722-3.649,1.859-2.538,3.83-.663.059-1.309.125-2,.176v1.891h279.38V67.466c-.594-.007-1.184-.031-1.769-.085.127-.705-.43-1.654.634-2.026h1.135v-4.58c-1.805.917-3.7,1.781-5.58,2.552C484.852,64.041,487.789,63.9,486.868,65.127ZM402.4,71.659h1.9c.533.261.837.6.635,1.126-.9-.019-1.8-.037-1.9.226C401.638,72.984,402.768,72.056,402.4,71.659Zm-97.8,4.732c2.3-.214.888.888,1.269,1.351C303.841,77.8,303.568,76.755,304.605,76.391Zm-.635-.451c-.731.792-3.128.992-4.445,1.577-1.057-.376-1.177-1.085-2.54-1.353C297.489,74.663,302.955,74.478,303.97,75.94Zm-87.637-3.379v.675c-.618-.005-.491-.275-.635-.451-.62-.3-2.14-.292-2.538-.675,1.913-.555,3.008-.228,5.715-.225C218.7,72.349,217.179,72.335,216.333,72.561Zm-1.271-10.588c2.3-.212.89.888,1.271,1.353C215.226,63.118,214.933,62.62,215.062,61.973Zm-3.174,6.758c2.914.08,1.683,1.351.635,1.8C211.093,70.366,212.275,69.271,211.888,68.731Zm20.32,13.292h-5.715c-.2-.917,5.2-.893,5.715-.226ZM276.03,75.94c1.889.019,1.7,1.344-.635,1.126C275.192,76.544,275.5,76.2,276.03,75.94Zm-21.593,6.083h-6.988c1.168-.846,8.51-3.083,10.162-.9h-5.08C252.79,81.557,255.44,81.141,254.437,82.023Zm15.242,0c-.132-2.133-4.561-3.936-4.446-5.407,2.058,2.115,4.763,3.028,5.082,5.407Zm6.986,0h-1.906c-.209-.825.705-1.253,1.271-1.8C277.463,80.388,276.277,81.484,276.665,82.023Zm2.538,0c.144-.176.017-.446.635-.453-1.793-1.915-6.058-2.956-10.8-3.828,4.586-.242-2.164-1.391-2.538-2.026-.792.7-4.389,1.588-6.988.9-.3-1.7,5.179-3.445,8.889-2.253.369.731-.432,1.048-.634,1.577,4.483,1.487,7.505,3.5,12.7,4.73.251-.386-.944-.578,0-.675a5.371,5.371,0,0,1,2.54.451c.188.442-.858.446-1.269.675,2.589-.019,4.6.172,5.08.9Zm4.446-3.605V77.067h1.9v.675c.2.306,1.591.186,2.54.226C288.4,79.414,285.61,78.555,283.65,78.418ZM330.643,81.8c-.387.014-.752.035-.634.226H328.74c.014-.531-1.1-.665-.637-1.353,1.546-.145,3.266-.454,3.177.451h-2.54C328.486,81.661,331.63,81,330.643,81.8Zm41.278.226h-.634a50.715,50.715,0,0,1-8.256-2.7c4.849-.85,9.258-3.456,15.242-1.351-1.711.519-6.125.08-8.893.225C373.654,78.254,371.365,80.643,371.921,82.023Zm6.353,0h-5.716c-.292-1.156,3.6-.825,6.351-.9C379.05,81.548,378.191,81.618,378.273,82.023ZM420.82,81.8a62.561,62.561,0,0,1-8.255-1.126c-2.51-2.018,2.54-3.379,8.255-2.477Zm.635-3.6c2,.11,2.246-.406,4.446-.225,2.073,1.2-.684,3.141-4.446,3.6Zm8.891,3.83h-7.62a22.633,22.633,0,0,1,7.62-1.8Zm.635,0c-.151-3.012.345-1.123,2.54,0Zm44.453-9.913c.808.54,2.319.829,1.906,1.8-2.154.787-5.479-.181-5.716.449C470,73.479,471.06,71.618,475.435,72.11Zm-21.593-.451v2.028c-3.266.185-3.882-.574-3.807-1.577C451.361,71.982,451.845,71.551,453.842,71.659Zm13.971,9.911a28.17,28.17,0,0,1-4.443.226c-2.531-1.135.865-2.834,4.443-1.8Zm1.906.453H468.45c5.794-1.175,12.016-3.395,17.782-3.83C480.149,79.266,474.965,80.653,469.719,82.023Zm17.148-6.083c-10.252-.569-22.441-.449-34.293-.451-1.8-.037.526,1.389-1.273,1.353h-3.807V75.265a29.113,29.113,0,0,1-8.893-1.128c-.209-.432,4.415,1.071,7.62.9,1.356.1,1.208-.322,1.273-.675a29.141,29.141,0,0,1,3.807.9c6.873-.066,18.99-.014,26.673.225C481.347,75.594,492.071,75.582,486.868,75.94Z" transform="translate(0 30.377)" fill="#f04a00"/>
    <path id="Path_97" data-name="Path 97" d="M281.884,70.3a50.578,50.578,0,0,1,7.62.677c-3.177.077-4.441-.527-7.62-.451-.4.693-2.857,1.826-1.9,2.253,7.336-.776,12.765-2.23,15.876-4.506V70.3c9.774-1.146,19.288-2.387,28.485-3.738H284.857A40.135,40.135,0,0,1,281.884,70.3Z" transform="translate(51.299 35.114)" fill="#f04a00"/>
    <path id="Path_98" data-name="Path 98" d="M371.487,25.983V25.6a5.934,5.934,0,0,0-1.135.268C370.742,25.9,371.111,25.943,371.487,25.983Z" transform="translate(118.42 4.761)" fill="#f04a00"/>
    <path id="Path_99" data-name="Path 99" d="M370.737,30.93c.669,1.02-2.477,2.04-6.045,2.312v5.017c1.361-.214,2.57-.411,3.5-.569,2.618-.446,5.1-.942,7.486-1.433V30.966C374.1,30.93,372.471,30.912,370.737,30.93Z" transform="translate(114.226 8.706)" fill="#f04a00"/>
    <path id="Path_100" data-name="Path 100" d="M338.258,29.949c-.08.071-.136.141-.209.211H342.7V21.389c-1.8-.037-2.648-.413-4.446-.449-.543,1.872-5.115,3.811-10.8,2.477V22.065a81.677,81.677,0,0,1,8.257-.225V20.263c-2.465-.31-4.714-.7-6.945-1.09H315.257c-3.163,1.777-6.73,3.412-10.021,5.144-1.407-.324.8-.548-.635-.675-3.034.4-10.881.561-11.431-.675,4.586-.433,5.665-3.889,12.066-2.253.193.841-.735,3.252,1.267,2.7-1.417-.164-.306-1.285,1.273-1.126.092.3-2.582.679-.635.9a83.31,83.31,0,0,1,7.571-4.018h-13.3c-.094,1.154-3.5,1.132-5.068,1.767-1.255-.211-.508-1.13-.555-1.767h-1.5c-2.516,1.18-4.378,2.594-4.3,4.7-1.375.037-.287-.8-.632-1.126a9.007,9.007,0,0,1,4.295-3.569H267.1c3.4.9,6.852,1.739,10.19,2.667-1.09-1.153,3.654-1.943,3.809-2.477,2.126-.477,1.448.634,2.54,1.351-2.742-.6-2.338.665-5.082.675,4,2.862,14.284,3.5,20.322,5.632,1.739-1.139,5.931-2.148,5.084-2.928,2.69.5-2.413,2.707-3.814,2.477a62.468,62.468,0,0,0,12.484,3.59h24.841A6.2,6.2,0,0,1,338.258,29.949ZM273.483,19.812h4.445C277.01,20.188,273.417,21.017,273.483,19.812Zm45.089,3.379c.174-.463,2.364-.212,2.54-.675.742.338,1.835.55,1.9,1.126A5.818,5.818,0,0,1,318.571,23.191Zm8.256.226c-2.178-.038-3.379-1.166-2.54-1.577a8.858,8.858,0,0,0,2.54.225Z" transform="translate(41.92)" fill="#f04a00"/>
    <path id="Path_101" data-name="Path 101" d="M386.743,25.444c-2.937.066-4.18-.468-5.08-1.126,2.537-1.323,5.881-1.173,8.755-1.823v-.85c-6.045-.467-10.261.536-15.742,1.1-.366.4.768,1.323-.635,1.351a8.822,8.822,0,0,1-3.175-.9c-2.88.928-7.117,1.274-7.622,2.479-.855-.587-4.432.143-4.443-.226,3.661-1.048,8.966-1.062,12.065-2.7-2.772-2.4,3.755-4.03,9.526-3.379v1.351c2.6-.009,3.727.346,3.811.675,2.06-.334,4.138-.663,6.215-.992V19.21c-.19.118-.479.2-.5.378-1.361.132-1.5-.171-1.8-.414H362.149c2.575.254,5.524.378,8.081.639,1.135-.063,1.3.214.635.226-4.19-.167-7.542-.632-11.542-.865h-.552c-.832,1.549-5.651,2.935-9.408,4.436-1.346.677-2.589,1.391-3.894,2.084a2.1,2.1,0,0,0-.641.877,2.058,2.058,0,0,0,.423,1.415,7.15,7.15,0,0,1,1.734,2.077c.038.035.078.063.117.1H379.43v6.593a21.275,21.275,0,0,1,4.136-1.4,20.281,20.281,0,0,1-4.136,1.494v2.235c3.4.272,7.033.357,10.989.427V30.97a36.963,36.963,0,0,0-7.486.106V29.5c-5.5-.3-8.987-1.32-13.971-1.8-1.266.907-6.776,1.5-10.16.9.848-1.276,3.167-2.03,6.983-2.253,4.358,1.459,10.376,2.326,17.148,2.928.378-.467-.785-1.48.634-1.577h6.852V23.426C387.875,23.63,387.595,24.64,386.743,25.444Zm-29.215,2.479c-3.128-.019-4.225-.171-3.175.9-1.294-.066-1.243-.609-2.54-.675a24.212,24.212,0,0,1,3.175-1.351C356.178,27.051,358.049,27.063,357.529,27.923ZM388.65,32.2c-.339.771-3.064.345-4.446.226C384.477,31.924,387.33,32.336,388.65,32.2Zm-16.513-6.758h-3.175V24.317a14.073,14.073,0,0,1,3.811.226C372.853,24.948,372,25.019,372.137,25.444Zm3.175-2.026h3.174a5.531,5.531,0,0,1-3.174.9Zm6.986,4.055c-1.941-.164-2.315.23-3.813.225.085-.87,2.577-.888,3.177-1.576C383.065,26.149,381.933,27.075,382.3,27.472Z" transform="translate(99.489)" fill="#f04a00"/>
    <path id="Path_102" data-name="Path 102" d="M284.387,19.587c.912-.094.731-.233.406-.414H284.1C284.29,19.277,284.4,19.41,284.387,19.587Z" transform="translate(54.513)" fill="#f04a00"/>
    <path id="Path_103" data-name="Path 103" d="M333.111,26.72a13.443,13.443,0,0,0,5.08.675c-.578-.4-2.223-.413-3.175-.675,1.708-.763,4.116,1.584,6.986.9-2.869,1.078-5.153-.239-8.891-.451-.951.658-3.059,1.476-3.351,2.237h14.368c-.129-.7-.82-1.25-2.759-1.111.176-.524,1.694-.519,2.54-.226-1.1-.745.515-1.865,0-3.153-.141-.353-1.609-.5-1.906-.9-1.161-1.569,1.447-3.384.635,0,1.09-.844,1.245-3.289-.635-3.828-1.605,1.086-3.061,1.964-1.271,3.153a8.366,8.366,0,0,0-3.814.533c-.313.237-.635.472-.971.7C335.188,25.359,334.866,26.293,333.111,26.72Z" transform="translate(88.344 0.752)" fill="#f04a00"/>
    <path id="Path_104" data-name="Path 104" d="M273.687,70.3c1.626-1.891,8.344-.1,12.7-.225a36.614,36.614,0,0,1,2.321-3.513H277.8C275.273,68.091,273.582,69.611,273.687,70.3Z" transform="translate(46.794 35.114)" fill="#f04a00"/>
    <path id="Path_105" data-name="Path 105" d="M277.336,19.812c-1.422.134-1.509-.273-1.257-.639h-9.251c-.827.534-3.01.306-4.542,0h-4.66c-4.927,1.316-9.175,2.873-14.58,4.018V26.57c6.193-.75,6.906,1.534,7.62,3.379h6.351c-2.584-2.94-1.522-5.86-2.267-6.938,1.074,1.172,1.112,4.683,2.9,6.938h17.78c-.317-1.842-5.258-3.236-4.446-4.73,1.032,1.811,4.293,2.833,5.08,4.73h6.351c2.549-1.725,5.533-2.893,4.446-5.406,1.118.054,1.447.386,1.269.9a22.934,22.934,0,0,0,5.08-3.6c-.359-.292-2.986-1.518-3.172-.451a19.886,19.886,0,0,0-5.775-2.216h-6.25C278.194,19.457,278.041,19.767,277.336,19.812Zm-17.78,2.7c.663,3.491-2.643-.218,1.269-.675C260.279,22.021,260.447,22.456,259.556,22.516Zm20.32-.451v3.83c-.731.729-.717-.606-.632-.9-7.867,1.114-16.656-.329-12.068-3.832,2.543.033,5.527-.576,7.62,0,.555.724-1.645.468-1.9.9.233.388,2.725,1.8,3.174.677,1.052.453.8,1.367,2.544,1.576C280.059,24.116,278.628,20.2,279.876,22.065Z" transform="translate(24.094)" fill="#f04a00"/>
    <path id="Path_106" data-name="Path 106" d="M253.724,19.812v-.639H224.346a49.494,49.494,0,0,1,.167,8.524c5.272.7,5.545-1.008,8.889-.675.346-.327-.742-1.165.635-1.126a2.744,2.744,0,0,1,2.538,2.479c4.3-.052,4.986-1.386,8.257-1.8-.884-.672-.749-1.379,1.269-1.576a17.508,17.508,0,0,0,2.54.675,35.821,35.821,0,0,1,7.624-2.253c.369-1.029-1.835-2.3,1.9-2.477-1.654.444-2.335,1.523-.634,2.026,4.415-1.273,8.708-2.587,13.309-3.793H257.5C257.26,19.748,255.946,19.941,253.724,19.812Zm-17.148,4.956c-1.783-.042-2.7-.392-2.538-1.126,1.187-.44,2.326-.07,3.809,0C238.392,24.361,236.849,24.338,236.576,24.768Z" transform="translate(10.239)" fill="#f04a00"/>
    <path id="Path_107" data-name="Path 107" d="M308.546,19.587c-1.588.736,4.084,1.777,5.716,1.353a57.4,57.4,0,0,1-5.716-1.128c2.8.007,5.383,1.537,6.349.226-1.011,1.26,2.723.836,3.175,1.576-.949.005-2.6-.836-3.175-.225a18.633,18.633,0,0,0,3.175.451c.982-.327.561-1.154.635-1.8-2.166-.294-4.363-.578-6.544-.865h-6.67A21.643,21.643,0,0,0,308.546,19.587Z" transform="translate(70.363)" fill="#f04a00"/>
    <path id="Path_108" data-name="Path 108" d="M225.076,26.454h.1c2.268-.665,4.883-.235,8.195-.211.308-1.065-4.351.526-3.809-.9,2.77-.111,1.349.695,3.809.225v-.9c-4.076.244-4.817-.7-8.889-.451C224.876,24.892,223.7,26.125,225.076,26.454Z" transform="translate(10.27 3.706)" fill="#f04a00"/>
    <path id="Path_109" data-name="Path 109" d="M214,27.855c0-.014-.01-.023-.012-.037-.117-.01-.212-.026-.315-.042A.956.956,0,0,0,214,27.855Z" transform="translate(2.332 6.375)" fill="#f04a00"/>
    <path id="Path_110" data-name="Path 110" d="M214.076,27.936c-.3-.131-.282-.371-.944-.373C213.242,27.751,213.588,27.866,214.076,27.936Z" transform="translate(1.93 6.216)" fill="#f04a00"/>
    <path id="Path_111" data-name="Path 111" d="M216.78,29.5a1.357,1.357,0,0,0,.1.1v-.1Z" transform="translate(4.633 7.655)" fill="#f04a00"/>
    <path id="Path_112" data-name="Path 112" d="M314.818,21.026c-2,.108-2.484-.32-3.811-.451-.956,2.833.994,6.018.414,8.546h2.369C314.115,26.416,314.531,23.744,314.818,21.026Z" transform="translate(74.251 1.039)" fill="#f04a00"/>
    <path id="Path_113" data-name="Path 113" d="M296.236,28.139a7.467,7.467,0,0,1-2.538-2.7c1.664.536,1.582,1.692,2.538,2.479,1.856-.319,2.016-1.238,3.175-1.8-5.78-1.777-13.642-2.82-19.051-4.73-1.4.028-.268.956-.635,1.353a8.826,8.826,0,0,0-2.538-.226c-1.776-.548,1.539-1.337,0-1.8-3.078.914-3.673,3.186-5.716,4.281a12.248,12.248,0,0,0-1.233-.226c-.124.3-3.55,4.161-3.848,4.055-.035-.012,22.787.16,19.568.211h8.518A6.545,6.545,0,0,1,296.236,28.139Zm-19.049-.225c-1.478-.339-.971-.552-.635-1.126,1.614.026,2.463.327,2.538.9C278.189,27.669,277.293,27.651,277.187,27.914Zm10.8.451c-3.5-.486-2.046-2.73-7.622-2.479-.317-.648,4.166.524,6.351.451,1.313-.136,2.4-.348,1.906-1.126.836.829,2.4,1.4,2.538,2.477C289.478,27.695,287.176,27.479,287.982,28.365Z" transform="translate(41.392 1.135)" fill="#f04a00"/>
    <path id="Path_114" data-name="Path 114" d="M220.146,59.563V57.086a2.96,2.96,0,0,1,1.37.385V56.431c-3.536,1.663-7.657,3.12-10.989,4.855v1.431h10.989v-2.9C220.84,59.808,220.222,59.782,220.146,59.563Z" transform="translate(0 27.606)" fill="#f04a00"/>
    <path id="Path_115" data-name="Path 115" d="M211.888,61.129c.62-.747,1.255.251,1.9.225.937,3.263-.47,5.695-3.266,7.632v.526c3.74-1.459,7.6-3.024,7.712-4.328a6.17,6.17,0,0,0,3.276-.373V59.592c-2.54.12-4.99.43-6.454-.265-.5-1.3,3.844-1.32,1.906-2.479a12.277,12.277,0,0,0-3.809,2.479c-.437.357-.717.6-.884.752-.219.219-.249.228,0,0,.185-.183.486-.5.884-.978,1.374-1.647,5.89-4.471,4.963-6.676-.221-.287-.461-.569-.695-.851a7.884,7.884,0,0,0-3-1.257c-.477-2.1-2.1-3.792-3.9-5.423v8.121c.033,0,.057,0,.091,0v1.353c-.024-.01-.063-.016-.091-.024v14.33C213.5,66.564,214.277,63.622,211.888,61.129Z" transform="translate(0 19.057)" fill="#f04a00"/>
    <path id="Path_116" data-name="Path 116" d="M268.334,25.521h10.249C275.526,25.477,271.619,25.35,268.334,25.521Z" transform="translate(42.831 4.639)" fill="#f04a00"/>
    <path id="Path_117" data-name="Path 117" d="M284.341,25.234a9.216,9.216,0,0,0-1.038.435h1.576C284.689,25.528,284.506,25.384,284.341,25.234Z" transform="translate(53.922 4.491)" fill="#f04a00"/>
    <path id="Path_118" data-name="Path 118" d="M231.353,25.5h8.757C237.815,25.435,234.622,25.463,231.353,25.5Z" transform="translate(15.431 4.659)" fill="#f04a00"/>
    <path id="Path_119" data-name="Path 119" d="M363.231,20.834c-1.767-.334,1.344-1.006-1.269-.9V21.96c2.295-.461,6.21-.35,7.622-1.126C368.531,20.527,365.877,21.018,363.231,20.834Z" transform="translate(112.204 0.555)" fill="#f04a00"/>
    <path id="Path_120" data-name="Path 120" d="M217.428,64.057a2.183,2.183,0,0,1,.695.851c.037.049.078.094.117.143.954-.336,2.672-.4,3.174-.9-1.913-.113-2.747-1.043-.635-1.351.864.07.528.564.635.9.04-.016.064-.037.1-.054V57.657a7.822,7.822,0,0,1-1.37.186c-.256-.158.427-.32,1.37-.5V51.663a6.855,6.855,0,0,1-3.912-.127c-.226-.757,2.27-1.085,3.912-.8V44.591c-.919-.077-.87-.493-.738-.94h.738V42.267a16.62,16.62,0,0,1-3.276.482c.185-.686,1.527-1.14,3.276-1.52v-2.1c-3.094.136-6.107.312-7.723-.663.808-.463,1.011-1.142,3.175-1.126,1.354-.106,1.21.322,1.271.675.86-.07.527-.564.635-.9.961-.052,1.83-.078,2.641-.084V31.125c-.249-.178-.5-.346-.738-.54-1.064.982-1.607,1.424-4.445,1.351.359-.548.543-1.158,2.542-1.126-2.416-.2-3.278-1.875-1.906-2.7-2.658-.268-2.841.343-2.54,1.125a13.165,13.165,0,0,1-3.9-.355v3.856c.026.037.068.066.091.1.628.223.364.192-.091.035V34.16l.091.03c-.026.024-.061.044-.091.066V56.869A93.505,93.505,0,0,1,217.428,64.057Zm.176-20.632a8.543,8.543,0,0,0,1.271.226V44.1c-1.8-.186-1.647.317-3.177.225C215.886,43.867,217.418,43.886,217.6,43.425Zm-1.906,2.7c1.675-.066,2.084.313,1.906.9H215.7Z" transform="translate(0 6.573)" fill="#f04a00"/>
    <path id="Path_121" data-name="Path 121" d="M239.528,25.505h1.5A5.426,5.426,0,0,0,239.528,25.505Z" transform="translate(21.488 4.655)" fill="#f04a00"/>
    <path id="Path_122" data-name="Path 122" d="M364.692,44.251a1.894,1.894,0,0,1,.329-.19c-.113-.05-.216-.1-.329-.153Z" transform="translate(114.226 18.327)" fill="#f04a00"/>
    <path id="Path_123" data-name="Path 123" d="M287.913,69c-3.612-.144-6.267-.628-10.16-.675-.414,1.206.836,3-.635,3.83-2.26-.1-2.507-.914-3.809-1.351-.042,1.036-1.8,1.461-2.54,2.253,2.756-.225,4.953-.648,7.62-.9v-2.7H282.2c-.16,1.109.785,1.824,3.177,2.028C286.184,70.638,287.4,69.944,287.913,69Z" transform="translate(44.635 36.417)" fill="#f04a00"/>
    <path id="Path_124" data-name="Path 124" d="M215.686,50.652a5.558,5.558,0,0,1,2.007,1.283V49C217.039,49.555,216.374,50.109,215.686,50.652Z" transform="translate(3.822 22.1)" fill="#f04a00"/>
    <path id="Path_125" data-name="Path 125" d="M338.837,26.8c2.77-.082,2.658.858,3.811,1.351-1.186.442-2.326.07-3.811,0-.959,1.7,3.759.662,5.08,1.126-.747.035-1.8-.038-1.9.226,2.277.017,3.67.35,5.715.449-.655-2.5-1.356-.179,0-2.253,1.175-1.795-2.557-2.664-2.54-3.153a17.406,17.406,0,0,0,2.54.675c1.706-.642-1.375-3.666,0-4.056-2.54.151-2.552-.594-2.54-1.351,1.734-.164,1.28.447,2.54.451-.037-.345-.073-.714-.11-1.09H338.1c-.985,1.8-1.191,3.628,2.005,5.371-.009.371-1.762.125-1.9.451C339.634,25.162,338.45,26.257,338.837,26.8Zm3.811-4.281c.54.042.6-.089.637-.225h1.267c-.117.192.249.212.635.225v.451c-.54-.042-.6.087-.635.225h-1.267c.115-.192-.249-.212-.637-.225Z" transform="translate(94.05)" fill="#f04a00"/>
    <path id="Path_126" data-name="Path 126" d="M263.036,25.491h1.76C264.157,25.474,263.546,25.465,263.036,25.491Z" transform="translate(38.906 4.669)" fill="#f04a00"/>
    <path id="Path_127" data-name="Path 127" d="M287.708,23.94c-2.268.245-2.122,1.349-3.809,1.8.381.3.79.6,1.217.886H299.4C295.6,25.7,291.756,24.783,287.708,23.94Z" transform="translate(54.364 3.532)" fill="#f04a00"/>
    <path id="Path_128" data-name="Path 128" d="M346.334,25.693a13.8,13.8,0,0,1,3.894-2.084,28.316,28.316,0,0,1,4.99-2c-.225-.97-3.515-.855-2.54-2.251,2.65-.113,3.05.569,3.175,1.351,1.891-.205,1.6-1.184,3.055-1.541H343.636a15.889,15.889,0,0,0,1.422,7.173C345.5,26.132,345.916,25.914,346.334,25.693Z" transform="translate(98.624)" fill="#f04a00"/>
    <path id="Path_129" data-name="Path 129" d="M245.65,25.713c-7.55-.287-1.309.865.634-.225-2-.268-3.358-.763-5.715-.9C239.348,26,244.557,25.125,245.65,25.713Z" transform="translate(22.122 4.011)" fill="#f04a00"/>
    <path id="Path_130" data-name="Path 130" d="M232.545,24.587c-.01.672-1.647.766-1.9,1.351h17.145C244.563,24.831,236.963,25.271,232.545,24.587Z" transform="translate(14.904 4.011)" fill="#f04a00"/>
    <path id="Path_131" data-name="Path 131" d="M245.168,23.993c-.1.559.327.935,1.267,1.126.268-.5,3.372-.005,3.814-.451-.409-.907.823-2.4-.637-2.928-5.3,1.8-11.508,3.276-17.146,4.956,4.894.064,8.593.555,13.336.675C246.167,26.185,243.89,24.755,245.168,23.993Z" transform="translate(16.255 1.902)" fill="#f04a00"/>
    <path id="Path_132" data-name="Path 132" d="M343.646,26.724h4.267c-.023-.033-.044-.064-.063-.1a9.832,9.832,0,0,1-1.734-2.077,3.772,3.772,0,0,0-2.326-.74C344.673,24.331,343.508,25.6,343.646,26.724Z" transform="translate(98.624 3.436)" fill="#f04a00"/>
    <path id="Path_133" data-name="Path 133" d="M364.692,31.406c.78-.165,1.527-.339,2.234-.529-.507-.052-1.321-.125-2.234-.185Z" transform="translate(114.226 8.535)" fill="#f04a00"/>
    <path id="Path_134" data-name="Path 134" d="M216.4,50.078c-.195,1.133-1.757,1.779-2.542,2.7,1.75-.312,3.426.35,5.183.087v-.921C218.275,51.284,218.086,50.417,216.4,50.078Z" transform="translate(2.471 22.899)" fill="#f04a00"/>
    <path id="Path_135" data-name="Path 135" d="M233.727,38.551c1.032.738-.145.862,0,1.8-.827.533-4.032.223-3.809,1.128,1.236-.084,3,.023,4.493.031V38.271C234.178,38.363,233.96,38.461,233.727,38.551Z" transform="translate(14.359 14.15)" fill="#f04a00"/>
    <path id="Path_136" data-name="Path 136" d="M246.986,57.436l.04-.371h-2.157C245.508,57.213,246.387,57.274,246.986,57.436Z" transform="translate(25.445 28.076)" fill="#f04a00"/>
    <path id="Path_137" data-name="Path 137" d="M241.753,34.262a6.361,6.361,0,0,1,3.231-.716h1.1a4.564,4.564,0,0,1,.907-.174V32.288H234.426c-.2.2-.44.454-.209.785-.74-.037-1.13.05-1.273.225-1.772-.207-1.365-.63-.627-1.01h-9.929v.644c.275.2.435.4.414.615h1.116a6.085,6.085,0,0,1,3.08.665,3.378,3.378,0,0,1,1.515,1.548,4.089,4.089,0,0,1,.2.935c3.68.279,7.657.609,11.344.94a5.989,5.989,0,0,1,.3-1.739A3.244,3.244,0,0,1,241.753,34.262Zm-8.174,2.416c.834-1.123-1.953-.959-1.9-1.8,3.283-.825,4.586.693,6.349,1.126A31.672,31.672,0,0,1,233.58,36.679Z" transform="translate(8.789 9.717)" fill="#f04a00"/>
    <path id="Path_138" data-name="Path 138" d="M247.72,51.488a14.914,14.914,0,0,1-2.194.03c-.063.169-.125.339-.188.5.773.007,1.544.017,2.322.019Z" transform="translate(25.793 23.943)" fill="#f04a00"/>
    <path id="Path_139" data-name="Path 139" d="M237.109,38.124c0-.931.026-1.678.066-2.322a106.631,106.631,0,0,0-10.91-.733c3.941,1.755,6.057,4.159,10.16,5.857.209-.141.447-.273.684-.407Z" transform="translate(11.661 11.777)" fill="#f04a00"/>
    <path id="Path_140" data-name="Path 140" d="M247.943,49.489h-1.4c-.327,1.119-.667,2.126-1.006,3.078.688.005,1.414.057,2.06.129Z" transform="translate(25.942 22.462)" fill="#f04a00"/>
    <path id="Path_141" data-name="Path 141" d="M231.451,40.258a46.035,46.035,0,0,0-5.329.117V42.61C227.941,41.84,229.694,41.048,231.451,40.258Z" transform="translate(11.555 15.599)" fill="#f04a00"/>
    <path id="Path_142" data-name="Path 142" d="M226.185,43.957c2.51-.038,5.944.249,6.6-.446-1.56-.425-4.967-.192-6.351-.677,1.224-1.114,5.637-1.882,8.889-1.576-2.4-2.359-6.657-4.058-9.286-6.335a28.463,28.463,0,0,1,.148,3.308Z" transform="translate(11.492 11.67)" fill="#f04a00"/>
    <path id="Path_143" data-name="Path 143" d="M245.253,52.047a8.458,8.458,0,0,1,2.378.472l.057-.533c-.81.021-1.629.03-2.434.057Z" transform="translate(25.73 24.312)" fill="#f04a00"/>
    <path id="Path_144" data-name="Path 144" d="M244.859,54.721a13.32,13.32,0,0,1-1.61,2.04c.094,0,.2-.005.279-.014.648.823,2.951,1.058,4.859,1.435l.5-4.641c-1.186.061-2.38.148-3.5.259C245.206,54.114,245.033,54.446,244.859,54.721Z" transform="translate(24.245 25.464)" fill="#f04a00"/>
    <path id="Path_145" data-name="Path 145" d="M239.981,51.811l-11.093,2.737v1.523a14,14,0,0,1-.374,4.29,3.089,3.089,0,0,1-1.36,1.633,6.4,6.4,0,0,1-3.235.714h-1.53v.848a8.364,8.364,0,0,1,1.668.106c.148.324-.776.266-1.668.223v.082H232.9a3.216,3.216,0,0,1-.585-1.431,5.257,5.257,0,0,0,3.175-2.251c.346.327-.745,1.163.635,1.126-.106-.639,3.912.186,3.809-.453-.747-.035-1.8.04-1.906-.225,4.3-.158.648-3.978,1.906-4.506l.066,0c-.007-.355-.017-.7-.017-1.112Zm-7.037,5.319c-2.547-.7-1.591-3,3.179-2.479C238.171,55.942,235.3,56.727,232.944,57.13Zm6.353-1.351c-1.318.232-.331-2.279-.637-3.155C239.981,52.391,238.992,54.9,239.3,55.779Z" transform="translate(8.789 24.183)" fill="#f04a00"/>
    <path id="Path_146" data-name="Path 146" d="M226.122,54.281v1.774c3.4-.877,7.167-1.816,11.093-2.765V49.476C233.488,51.067,229.567,52.591,226.122,54.281Z" transform="translate(11.555 22.453)" fill="#f04a00"/>
    <path id="Path_147" data-name="Path 147" d="M232.722,53.31c.273-.5,3.13-.091,4.445-.225-.35-.474-.275-.815.049-1.058V44.01a.547.547,0,0,0-.049.063c-1.934.01-2.47-.475-3.809-.674.139-1.02,2.04-1.389,3.858-1.158v-2h-5.129a28.018,28.018,0,0,1-5.964,2.5V60.841c3.616-1.616,7.51-3.212,11.093-4.8V53.587A32.473,32.473,0,0,1,232.722,53.31Zm0,3.379c-2.653-.151-.294-1.4,1.269-.677C233.766,56.309,232.872,56.367,232.722,56.689Z" transform="translate(11.555 15.612)" fill="#f04a00"/>
    <path id="Path_148" data-name="Path 148" d="M255.634,60.29c-1,.016-2.385-.1-2.5.226-.517-1.349-4.133-2.836-4.25-4.154-.188.117-.367.249-.564.353a12.005,12.005,0,0,1-4.73,1.229c-.823.188-2.166.192-2.524.543-.761-.207-.839-.36-.555-.479h-2.157a16.093,16.093,0,0,1-4.119-.308,2.775,2.775,0,0,1-1.374-1.126,33.559,33.559,0,0,1,.468,4.02h15.6c-1.666-.985-3.179-1.988-2.143-3.233-.031,1.419,1.328,2.343,2.787,3.233H255.6Z" transform="translate(16.547 27.555)" fill="#f04a00"/>
    <path id="Path_149" data-name="Path 149" d="M272.353,44.676c1.368-.026,1.478.393,1.7.773V43.127c-.592-.151-1.165-.306-1.7-.479.641.132,1.193.221,1.7.282v-.764c-.817.148-1.593.308-2.335.482.688.421,1.349.848,2.124,1.236-.844-.345-1.8-.67-2.646-.968v1.852A10.489,10.489,0,0,1,272.353,44.676Z" transform="translate(44.953 17.036)" fill="#f04a00"/>
    <path id="Path_150" data-name="Path 150" d="M274.054,42.331V41.8c-.938-.009-1.966-.019-2.857-.007V42.3A25.6,25.6,0,0,0,274.054,42.331Z" transform="translate(44.953 16.756)" fill="#f04a00"/>
    <path id="Path_151" data-name="Path 151" d="M254.288,46.23c-.092.5-.693.733-1.563.829v3.034c1.027.259,2.032.529,2.2,1.093-.942.131-1.365.444-2.2.611v.279c3.746-.877,7.413-1.863,11.095-2.831V39.461c-2.953.46-6.34.763-8.9,1.363-.5,1.532.433,3.745,1.273,4.055-3.4-.3-.705-2.754-2.543-3.6-.324.127-.618.237-.928.357v4.1A3.418,3.418,0,0,1,254.288,46.23Zm1.271-2.251c.357-.55.543-1.159,2.537-1.126v1.576C257.157,44.311,256.5,44.1,255.559,43.979Zm7.617,4.055a13.39,13.39,0,0,1-2.537,1.577c-2.258-.252-4.293-.58-4.443-1.577C257.725,46.827,261.268,47.2,263.176,48.033Z" transform="translate(31.266 15.032)" fill="#f04a00"/>
    <path id="Path_152" data-name="Path 152" d="M252.735,37.7v1.414c.728.1,1.454.207,2.2.3-.359-1.027,1.126-1.4.635-2.477-1.006-.23-1.945-.48-2.857-.743C252.724,36.661,252.735,37.145,252.735,37.7Z" transform="translate(31.256 12.611)" fill="#f04a00"/>
    <path id="Path_153" data-name="Path 153" d="M269.85,55.185a15.914,15.914,0,0,1,3.5-.162c-.005.012,0,.019-.005.03.117-.232.2-.47.291-.705h-3.266C270.209,54.639,270.035,54.916,269.85,55.185Z" transform="translate(43.955 26.062)" fill="#f04a00"/>
    <path id="Path_154" data-name="Path 154" d="M271.413,43.074c.82-.044,1.838-.016,2.857.012V39.115a11.736,11.736,0,0,1,.444-3.915,4.838,4.838,0,0,1,.507-.917q-2.256.358-4.316.785a12.245,12.245,0,0,1,.508,4.048Z" transform="translate(44.736 11.195)" fill="#f04a00"/>
    <path id="Path_155" data-name="Path 155" d="M270.44,55.751a14.43,14.43,0,0,1,3.3-.628,28.22,28.22,0,0,0,.587-3.778c-.463.118-.928.244-1.412.413-.16-.444-.693-.6-1.429-.6a16.123,16.123,0,0,1-1.038,4.58Z" transform="translate(44.392 23.699)" fill="#f04a00"/>
    <path id="Path_156" data-name="Path 156" d="M252.829,51.935c.044.4.1.771.164,1.146,3.423-.211,7.225-.287,10.874-.42-.021-.275-.038-.564-.052-.862C260.117,51.856,256.461,51.895,252.829,51.935Z" transform="translate(31.343 24.174)" fill="#f04a00"/>
    <path id="Path_157" data-name="Path 157" d="M271.2,40.737V42.35q1.47,0,2.857.005V40.693A27.538,27.538,0,0,1,271.2,40.737Z" transform="translate(44.953 15.945)" fill="#f04a00"/>
    <path id="Path_158" data-name="Path 158" d="M262.352,36.186c-1.231.063-2.765.016-4.095.042a14.971,14.971,0,0,1,4.262-.6,3.214,3.214,0,0,1,1.407-1.515,7.087,7.087,0,0,1,2.944-.541,19.132,19.132,0,0,0-2.235-1.28h-3.111a23.79,23.79,0,0,0-6.441,7.543c.225.747,1.9.977,3.175,1.351.484-1.6-.79-2.573-.635-4.055.446.726,1.793.47,4.445.9.084.4-.776.475-.637.9-1.292.453-1.241-.1-2.536-.225v2.253c1.083-.026,2.18-.047,3.181-.1v-.263A23.439,23.439,0,0,1,262.352,36.186Z" transform="translate(33.012 9.717)" fill="#f04a00"/>
    <path id="Path_159" data-name="Path 159" d="M264.43,33.547V32.288H261c.573.393,1.271.829,1.992,1.266.085,0,.157-.007.247-.007Z" transform="translate(37.395 9.717)" fill="#f04a00"/>
    <path id="Path_160" data-name="Path 160" d="M274.061,45.718a5.013,5.013,0,0,1-1.7,1.734,8.833,8.833,0,0,1-1.156,0v2c0,.475-.009.924-.016,1.372h2.836c.021-.85.037-1.725.037-2.665Z" transform="translate(44.946 19.668)" fill="#f04a00"/>
    <path id="Path_161" data-name="Path 161" d="M271.2,39.7c.938-.037,1.915-.063,2.857-.073v-.122c-.931-.01-1.934-.049-2.857-.056Z" transform="translate(44.953 15.026)" fill="#f04a00"/>
    <path id="Path_162" data-name="Path 162" d="M273.936,52.084c.054-.682.1-1.4.132-2.173a19.664,19.664,0,0,0-2.8-.9c-.036,1.255-.108,2.387-.211,3.414C272.052,52.3,273.008,52.187,273.936,52.084Z" transform="translate(44.851 22.11)" fill="#f04a00"/>
    <path id="Path_163" data-name="Path 163" d="M271.186,48.991l0,.03a17.235,17.235,0,0,1,2.8.858c.016-.348.026-.716.035-1.081C273,48.838,272.037,48.9,271.186,48.991Z" transform="translate(44.943 21.95)" fill="#f04a00"/>
    <path id="Path_164" data-name="Path 164" d="M259.85,62.443a18.872,18.872,0,0,1,5.087-.435,24.285,24.285,0,0,0,2.791-2.258l-.04-.021a7.8,7.8,0,0,1-3.08-3.334,9.769,9.769,0,0,1-.656-2.721H262.4V52.548c-3.008-.1-8.315.132-9.474,0a15.237,15.237,0,0,0,1.492,4.8A13.1,13.1,0,0,0,259.85,62.443Z" transform="translate(31.413 24.71)" fill="#f04a00"/>
    <path id="Path_165" data-name="Path 165" d="M252.725,48.033v3.059a3.02,3.02,0,0,1,.292-.334c1.421.1.258,1.111.635,1.576a2.222,2.222,0,0,1-.928-.333v1.614c0,.54.04,1.027.064,1.535a6.962,6.962,0,0,1,3.407.338c-.332.353-1.931.259-3.384.214.019.289.031.588.061.867,3.713-.077,7.4-.15,11-.183-.038-.843-.056-1.764-.056-2.772V51.628a78.52,78.52,0,0,1-9.532-.42c2.491-.244,7.819.522,8.256-.451-.209-1.126-7.037.094-8.256-.675.775-.851,2.584-1.337,5.08-1.577,1.356.111,3.163.635,4.452.848V49.1a2.062,2.062,0,0,1-.644-.367,2.978,2.978,0,0,0,.644-.232V45.209C260.131,46.154,256.482,47.114,252.725,48.033Z" transform="translate(31.266 19.291)" fill="#f04a00"/>
    <path id="Path_166" data-name="Path 166" d="M267.4,33.547a9.675,9.675,0,0,1,4.324.783,3.885,3.885,0,0,1,1.633,1.837c.007.014.012.035.019.049,1.643-.3,3.186-.67,4.784-1a4.206,4.206,0,0,1,1.015-.89,6.065,6.065,0,0,1,3.012-.761,3.3,3.3,0,0,0-.427-1.281H267.4Z" transform="translate(42.142 9.717)" fill="#f04a00"/>
    <path id="Path_167" data-name="Path 167" d="M277.026,32.288h-1.067a2.216,2.216,0,0,0,.331,1.259h.736Z" transform="translate(48.479 9.717)" fill="#f04a00"/>
    <path id="Path_168" data-name="Path 168" d="M262.986,40.556V39.311c-2.425-.862-5.085-1.281-7.624-2.432.209.9-1.137,1.252-.637,2.253,2.248.48,5.092.747,6.985,1.353-2.77-.219-4.572-.78-6.985-1.126-1.032,1.118,2.208.717,1.9,1.576-.951.04-2.343-.078-2.54.226,4.34.373-1.452-.1,0,1.126C257.539,41.8,259.766,40.831,262.986,40.556Z" transform="translate(32.1 13.119)" fill="#f04a00"/>
    <path id="Path_169" data-name="Path 169" d="M256.176,40.1a47.687,47.687,0,0,0,5.087-.776v-.108A12.036,12.036,0,0,0,256.176,40.1Z" transform="translate(33.823 14.852)" fill="#f04a00"/>
    <path id="Path_170" data-name="Path 170" d="M261.282,35.1c1.14-.4-.385-1.536-1.842-2.812H249.285v1.259a9.316,9.316,0,0,1,4.016.545,3.305,3.305,0,0,1,1.53,1.548,10.408,10.408,0,0,1,.416,3.243c.984.3,1.953.616,2.86.949,2.61-2.378,3.435-5.39,6.985-7.434a.679.679,0,0,0-.167-.11h-.353a1.991,1.991,0,0,1-2.02.559,2.821,2.821,0,0,0-1.26-.559h-1.045C261.609,33.465,262.786,34.567,261.282,35.1Z" transform="translate(28.717 9.717)" fill="#f04a00"/>
    <path id="Path_171" data-name="Path 171" d="M253.653,40.244c-.3.068-.622.131-.928.2v.388C253.259,40.629,253.616,40.436,253.653,40.244Z" transform="translate(31.266 15.612)" fill="#f04a00"/>
    <path id="Path_172" data-name="Path 172" d="M254.288,41.664c-.606-1.732.129-1.858.635-3.381-.745-.068-1.473-.16-2.2-.258v3.94C253.249,41.866,253.78,41.768,254.288,41.664Z" transform="translate(31.266 13.968)" fill="#f04a00"/>
    <path id="Path_173" data-name="Path 173" d="M276.5,59.227a17.114,17.114,0,0,0,3.407-3.212,11.206,11.206,0,0,1-2.622.115c-.265-.179-.55-.352-.792-.538a10.4,10.4,0,0,1-1.814,1.506,11.6,11.6,0,0,1-6.381,1.685,10.3,10.3,0,0,1-5.113-1.177c-1.106,1.224-2.046,2.4-1.776,3.48a13.79,13.79,0,0,1-2.013.66,29.781,29.781,0,0,0,5.77.507Q272.35,62.253,276.5,59.227Z" transform="translate(36.211 26.984)" fill="#f04a00"/>
    <path id="Path_174" data-name="Path 174" d="M260.452,37.339c-.94.075-1.983.117-3.181.1a9.617,9.617,0,0,0,3.181,1.337Z" transform="translate(34.634 13.46)" fill="#f04a00"/>
    <path id="Path_175" data-name="Path 175" d="M300.078,56.949a2.077,2.077,0,0,1-.834.3l.9,1.111a7.354,7.354,0,0,1,2.472.39c.872.514-1.638.848,0,.9a31.307,31.307,0,0,1,3.767-.792V55.92c-.729-.195-1.544-.428-2.5-.773-2.672-.966-2.275-1.744-4.445-2.028-1.22-.158-3,.51-2.54-.225,1.431-.728.3-.611-1.41-.263l3.529,4.344C299.4,56.979,299.771,56.973,300.078,56.949Z" transform="translate(62.954 24.588)" fill="#f04a00"/>
    <path id="Path_176" data-name="Path 176" d="M280.782,33.073c-.165.294-1.572-.023-2.96-.5v.971a10.848,10.848,0,0,1,2.023.239c2.867-.472,5.778-1,8.654-1.5H277.876A18.865,18.865,0,0,0,280.782,33.073Z" transform="translate(49.861 9.717)" fill="#f04a00"/>
    <path id="Path_177" data-name="Path 177" d="M293.568,38.028a10.973,10.973,0,0,0-4.636-1.87,30.957,30.957,0,0,0,7.77.776l-3.7-4.647h-3.2c-3.1.493-6.365,1-8.945,1.461,2.293.66,4.593,1.549,7.258,2.227-2.794-.609-5.911-1.105-7.89-2a8.044,8.044,0,0,0-.81.035c.157.059.312.117.447.185a9.044,9.044,0,0,1,2.585,2.416l.987,1.226v8.457c.877-.127,1.713-.279,2.484-.465V44.88c-.644-.251-1.318-.491-1.885-.768a5.585,5.585,0,0,1,1.885-.752V41.069l1.6,1.971c.111-.017.211-.038.324-.056,2.183.052,2.766.67,3.172,1.351,3.061-.19,4.566-.933,7.624-1.125,1.57-.03,1.079.275,0,.225a43.252,43.252,0,0,0-9.439,1.671l3.2,3.938c4.082.2,8.177.392,11.958.7.634-.259,1.274-.515,1.912-.775l-8.558-10.757A14.427,14.427,0,0,0,293.568,38.028Zm1.271,9.462c-3.209.155-4.4-.541-3.179-1.351h3.179Z" transform="translate(51.048 9.717)" fill="#f04a00"/>
    <path id="Path_178" data-name="Path 178" d="M277.822,59.878h4.843a10,10,0,0,1,.1-2.549,8.014,8.014,0,0,1-4.946,1.29Z" transform="translate(49.861 28.271)" fill="#f04a00"/>
    <path id="Path_179" data-name="Path 179" d="M307.7,32.288c.021.641-.46,1.259-2,1.236a2.277,2.277,0,0,0,.947-1.236H296.471v1.259q3.844-.068,5.477,1.906,1.193,1.462,1.193,5.616V41.1c.818.1,1.65.183,2.519.237v-.263a13.238,13.238,0,0,1,.559-4.612,4.021,4.021,0,0,1,1.292-1.7,1.339,1.339,0,0,1-.026-1.494c-.235.7,3.6-.456,2.9-.8a5.249,5.249,0,0,1,1.33.48v-.655Z" transform="translate(63.679 9.717)" fill="#f04a00"/>
    <path id="Path_180" data-name="Path 180" d="M291.851,59.178h-1.088a6.661,6.661,0,0,1-4.17-1.4,3.763,3.763,0,0,1-.964-1.206c-1.678.15-2.4.639-4.537.627-.038.049-.071.1-.111.153v3c2.6-.054,3.576-.684,6.353-.675a13.559,13.559,0,0,0,2.272.754h2.246Z" transform="translate(52.202 27.712)" fill="#f04a00"/>
    <path id="Path_181" data-name="Path 181" d="M302.821,40.006V38.1c-.816.056-1.657.117-2.519.153v2.693C301.139,40.631,301.968,40.314,302.821,40.006Z" transform="translate(66.518 14.022)" fill="#f04a00"/>
    <path id="Path_182" data-name="Path 182" d="M302.821,38.439v-.794c-.839-.054-1.683-.117-2.519-.192V38.5C301.136,38.492,301.984,38.474,302.821,38.439Z" transform="translate(66.518 13.545)" fill="#f04a00"/>
    <path id="Path_183" data-name="Path 183" d="M297.405,52.5q-1.319-.4-2.592-.816l1.013,1.248C296.352,52.784,296.873,52.638,297.405,52.5Z" transform="translate(62.451 24.085)" fill="#f04a00"/>
    <path id="Path_184" data-name="Path 184" d="M297.032,52.745c1.645.843,4.1,1.4,5.714,2.253a7.171,7.171,0,0,0,2.5-.456V51.831A14.837,14.837,0,0,0,297.032,52.745Z" transform="translate(64.095 24.062)" fill="#f04a00"/>
    <path id="Path_185" data-name="Path 185" d="M282.806,55.624a7.912,7.912,0,0,1,.853.054c-.023-.108-.054-.2-.071-.315Z" transform="translate(53.554 26.814)" fill="#f04a00"/>
    <path id="Path_186" data-name="Path 186" d="M281.574,57.31c.891-.322,1.852-.62,2.869-.9a13.381,13.381,0,0,1-.11-1.739v-.138a18.933,18.933,0,0,1-2.484-1.024v1.161A12.007,12.007,0,0,1,281.574,57.31Z" transform="translate(52.641 25.444)" fill="#f04a00"/>
    <path id="Path_187" data-name="Path 187" d="M281.732,46.877v1.5a9.5,9.5,0,0,1,2.484.237v-.735C283.96,47.345,283.093,47.023,281.732,46.877Z" transform="translate(52.758 20.527)" fill="#f04a00"/>
    <path id="Path_188" data-name="Path 188" d="M299.585,51.2c.494.05,1.253.007,1.269.226-.352,0-.721.183,0,.225.261-.284.818-.461,1.906-.451,0,.226-.514.27-.635.451h1.227v-.611A16.531,16.531,0,0,0,299.585,51.2Z" transform="translate(65.986 23.583)" fill="#f04a00"/>
    <path id="Path_189" data-name="Path 189" d="M301.409,51.687c.207.03.4.068.592.1v-.233A3.715,3.715,0,0,0,301.409,51.687Z" transform="translate(67.338 23.993)" fill="#f04a00"/>
    <path id="Path_190" data-name="Path 190" d="M281.732,45.459v1.852a5.511,5.511,0,0,0,2.484,1v-.792a5.324,5.324,0,0,0-1.885-.555C282.681,46.269,281.972,45.946,281.732,45.459Z" transform="translate(52.758 19.476)" fill="#f04a00"/>
    <path id="Path_191" data-name="Path 191" d="M288.433,44.438l3.17,3.9h2.909c-3.4.005-2.521-1.508-2.54-2.7,6.3-1.976,11.633.108,12.7,2.479-.275.5-3.128.091-4.445.223-1.421.1-.258,1.112-.635,1.579a18.268,18.268,0,0,1-6.964-.317l1.144,1.408c.245.087.5.171.74.259-.212-.033-.418-.073-.622-.113l.117.145c1.892.111,1.431.484,3.68.193a71.85,71.85,0,0,1,8.908-1.664L301.159,43c-.265.017-.524.031-.79.049-1.821.28-4.088.468-6.412.637C292.037,43.915,290.162,44.178,288.433,44.438Z" transform="translate(57.723 17.651)" fill="#f04a00"/>
    <path id="Path_192" data-name="Path 192" d="M281.732,49.885v1.048c.921.024,1.734.01,2.484-.024V49.561A10.971,10.971,0,0,0,281.732,49.885Z" transform="translate(52.758 22.516)" fill="#f04a00"/>
    <path id="Path_193" data-name="Path 193" d="M303.85,61.614v-5.2c-1.574.23-3.28.43-4.935.554l3.778,4.65Z" transform="translate(65.489 27.59)" fill="#f04a00"/>
    <path id="Path_194" data-name="Path 194" d="M284.216,49.1v-.317h-2.484v.468A6.272,6.272,0,0,0,284.216,49.1Z" transform="translate(52.758 21.94)" fill="#f04a00"/>
    <path id="Path_195" data-name="Path 195" d="M281.732,52.018v2.42c.954.456,1.795.89,2.484,1.294V51.652A14.644,14.644,0,0,1,281.732,52.018Z" transform="translate(52.758 24.065)" fill="#f04a00"/>
    <path id="Path_196" data-name="Path 196" d="M284.216,49.633v-.345a8.5,8.5,0,0,0-2.484-.092v.869A5.509,5.509,0,0,1,284.216,49.633Z" transform="translate(52.758 22.219)" fill="#f04a00"/>
    <path id="Path_197" data-name="Path 197" d="M302.821,45.752V39.338q-1.256.475-2.519.947v5.252C301.119,45.618,301.952,45.691,302.821,45.752Z" transform="translate(66.518 14.941)" fill="#f04a00"/>
    <path id="Path_198" data-name="Path 198" d="M294.346,48.162c-1.556-.178-1.9.075-2.26.32l.4.487C293.442,48.822,294.2,48.6,294.346,48.162Z" transform="translate(60.43 21.435)" fill="#f04a00"/>
    <path id="Path_199" data-name="Path 199" d="M284.216,46.85V41.886c-.82-.024-1.64-.049-2.484-.066v4.788C282.576,46.688,283.41,46.766,284.216,46.85Z" transform="translate(52.758 16.78)" fill="#f04a00"/>
    <path id="Path_200" data-name="Path 200" d="M302.821,49V43.148c-.874-.005-1.713.005-2.519.023v6.191C301.141,49.243,301.984,49.124,302.821,49Z" transform="translate(66.518 17.763)" fill="#f04a00"/>
    <path id="Path_201" data-name="Path 201" d="M295.636,52.8a26.16,26.16,0,0,0,4.07,1.071c2.1-1.01,6.194-2.841,1.9-4.055-2.921.017-5.672.1-8.189.254Z" transform="translate(61.42 22.707)" fill="#f04a00"/>
    <path id="Path_202" data-name="Path 202" d="M283.6,42.012c1.5.239-.258.226-1.87.242v.353q1.227.086,2.484.162V40.29C282.441,41.044,281.817,41.728,283.6,42.012Z" transform="translate(52.758 15.646)" fill="#f04a00"/>
    <path id="Path_203" data-name="Path 203" d="M289.247,43.012c.23.482-.855.5-.738.937l.756.93c1.783-.169,3.8-.3,5.776-.444,2.147-.263,4.337-.487,6.412-.637.254-.038.493-.08.731-.122l-.43-.541a10.826,10.826,0,0,1-2.35-.348,15.54,15.54,0,0,0,2.077,0l-.644-.81c-1.142.484-2.265.975-3.336,1.483.035-.287.813-.312.635-.677-3.691-.254-7.35-.521-11.166-.731l.656.808C288.131,42.917,288.657,42.986,289.247,43.012Z" transform="translate(56.639 16.899)" fill="#f04a00"/>
    <path id="Path_204" data-name="Path 204" d="M300.3,47v1.086c.829-.061,1.671-.127,2.519-.2V46.642Q301.557,46.817,300.3,47Z" transform="translate(66.518 20.353)" fill="#f04a00"/>
    <path id="Path_205" data-name="Path 205" d="M283.6,40.244c-.385.024-1.074.08-1.87.174v.933C282.646,41.144,283.375,40.825,283.6,40.244Z" transform="translate(52.758 15.612)" fill="#f04a00"/>
    <path id="Path_206" data-name="Path 206" d="M296.667,48.732a26.132,26.132,0,0,1,5.756.08l-.935-1.173q-1.755.1-3.553.192C299.012,48.668,297.8,48.271,296.667,48.732Z" transform="translate(63.824 21.091)" fill="#f04a00"/>
    <path id="Path_207" data-name="Path 207" d="M302.821,50.777V47.488c-.825.061-1.675.113-2.519.167v1.36C301.719,49.326,302.557,49.9,302.821,50.777Z" transform="translate(66.518 20.98)" fill="#f04a00"/>
    <path id="Path_208" data-name="Path 208" d="M296.667,48.037c1.332.021,2.947-.045,4.674-.15l-.658-.83A23.162,23.162,0,0,0,296.667,48.037Z" transform="translate(63.824 20.66)" fill="#f04a00"/>
    <path id="Path_209" data-name="Path 209" d="M281.732,50.477V51.71a17.969,17.969,0,0,1,2.484-.056V50.446C283.45,50.462,282.625,50.472,281.732,50.477Z" transform="translate(52.758 23.171)" fill="#f04a00"/>
    <path id="Path_210" data-name="Path 210" d="M319.72,44.172l1.133,2.624h.01l-.01,0,.413.952a4.219,4.219,0,0,1,.869.172l-.726.158.127.289c.315.005.714.005,1.233,0a1.6,1.6,0,0,1-1.013.508l1.34,3.1h4.756c1.845-1.06,3.7-2.113,5.552-3.172L331.466,44.4C327.361,44.344,323.249,44.289,319.72,44.172Z" transform="translate(80.905 18.523)" fill="#f04a00"/>
    <path id="Path_211" data-name="Path 211" d="M326.311,38.423a19.7,19.7,0,0,0,3.109.308l-.48-1.1a31.248,31.248,0,0,1-4.533-1.015c.6.585,1.158,1.323-.635,1.577.1.263,1.158.19,1.9.225v2.253c-3.938.272-4.916-.508-6.349-1.126q.418-.977,3.175-1.126c-.627-.78-2.394-1.539,1.269-1.577-1.013-.085-2.2-.151-3.48-.2l-4.5,10.026a19.763,19.763,0,0,1,3.228-.823l.968-2.173.855,1.978c.129-.007.251-.017.385-.024,1.659.4,1.5,1.572.635,2.255h-.054l.131.3a20.255,20.255,0,0,0,7.543-1.88,8.981,8.981,0,0,0,3.348.185l-1.1-2.5a15.418,15.418,0,0,1-2.248.063c-.651.44.042,1.339-3.811,1.126.1-.263-.139-.4-.634-.451,1.053-.769,3.7-.973,6.527-1.114l-2.007-4.563C328.249,39.269,325.234,39.192,326.311,38.423Z" transform="translate(77.998 12.928)" fill="#f04a00"/>
    <path id="Path_212" data-name="Path 212" d="M314.761,46.628l-1.866,4.159q1.447-.047,2.93-.082l1.976-4.432Q316.294,46.456,314.761,46.628Z" transform="translate(75.848 20.079)" fill="#f04a00"/>
    <path id="Path_213" data-name="Path 213" d="M321.707,48.767l.588,1.36c1.873-.111,2.429-.689,2.812-1.33C324.226,48.877,322.828,48.772,321.707,48.767Z" transform="translate(82.377 21.927)" fill="#f04a00"/>
    <path id="Path_214" data-name="Path 214" d="M330.62,54.4l.12.279a36.909,36.909,0,0,0,9.883-4.063L339.034,47a32.658,32.658,0,0,1-5.045,2.885c.952.038,2.345-.082,2.54.225h-3.809c-.232.669-1.1,1.111-2.54,1.351-.1.714,1.687.754,1.269,1.577a40.045,40.045,0,0,0-8.269,1.318c.87-.357,1.563-.778,2.554-1.092-2.8-.127-4.619-.6-5.581-1.382H318.78c.2.6.406,1.14-3.207,1.156-.08-.458.249-.836.768-1.156h-.829l.674-1.516c-.942.024-1.926.057-2.935.1l-.959,2.138a2.183,2.183,0,0,1,.742-.237,7.722,7.722,0,0,1,4.236,2.037H330.62Z" transform="translate(75.401 20.617)" fill="#f04a00"/>
    <path id="Path_215" data-name="Path 215" d="M328.7,42.5c.367.4-.768,1.325.635,1.353-.712.423-2.46.479-3.175.9-1.831-.1-1.5-.97-3.175-1.126a23.179,23.179,0,0,0-3.545.736l.333.768c3.567.265,7.646.348,11.819.4L330.2,42.368C329.7,42.413,329.219,42.464,328.7,42.5Z" transform="translate(80.694 17.186)" fill="#f04a00"/>
    <path id="Path_216" data-name="Path 216" d="M315.726,43.091l-.568,1.269q1.363.042,2.737.082c.042,0,.061-.005.1-.005l.6-1.346Z" transform="translate(77.525 17.722)" fill="#f04a00"/>
    <path id="Path_217" data-name="Path 217" d="M316.108,44.017c-.32-.014-.628-.035-.945-.05l-.165.367A7.373,7.373,0,0,0,316.108,44.017Z" transform="translate(77.406 18.371)" fill="#f04a00"/>
    <path id="Path_218" data-name="Path 218" d="M318.105,44c-.792.181-1.638.341-2.469.51l-1.621,3.619c1.032-.1,2.032-.216,3.028-.333l1.671-3.75Z" transform="translate(76.679 18.392)" fill="#f04a00"/>
    <path id="Path_219" data-name="Path 219" d="M312.106,51.487c.005-.188-.01-.383-.019-.573l-.258.578C311.923,51.49,312.012,51.487,312.106,51.487Z" transform="translate(75.058 23.518)" fill="#f04a00"/>
    <path id="Path_220" data-name="Path 220" d="M310.555,54.566c-.155.308-.306.608-.456.888a7.4,7.4,0,0,0,2.984,1.339,9.685,9.685,0,0,1,.623-2.524C312.709,54.406,311.654,54.5,310.555,54.566Z" transform="translate(73.776 26.003)" fill="#f04a00"/>
    <path id="Path_221" data-name="Path 221" d="M322.91,33.028c.127.066.251.148.376.218l-.552-1.257a.56.56,0,0,1-.2-.247h-.554l-3.3,7.375a38.965,38.965,0,0,0,6.776.895c-.1.265-1.158.192-1.906.226,1,.228,2.054.468,3.13.71l-3.259-7.408A6.618,6.618,0,0,1,322.91,33.028Z" transform="translate(80.13 9.312)" fill="#f04a00"/>
    <path id="Path_222" data-name="Path 222" d="M321.17,36.564c-.874-.134-1.666-.3-2.418-.475l-.3.674C319.441,36.726,320.366,36.667,321.17,36.564Z" transform="translate(79.963 12.534)" fill="#f04a00"/>
    <path id="Path_223" data-name="Path 223" d="M325.85,51.836q2.734-.616,5.446-1.24l-.6-1.37C329.088,50.1,327.48,50.972,325.85,51.836Z" transform="translate(85.447 22.267)" fill="#f04a00"/>
    <path id="Path_224" data-name="Path 224" d="M312.717,58.158c1.118-.324,1.447-.207,1.271.451.649-.033.578-.32.615-.569a9.326,9.326,0,0,1-1.429-.322A1.353,1.353,0,0,1,312.717,58.158Z" transform="translate(75.716 28.559)" fill="#f04a00"/>
    <path id="Path_225" data-name="Path 225" d="M311.757,58.061c-.259-.092-.531-.176-.8-.263-.136.171-.27.326-.4.461a6.846,6.846,0,0,1-4.084,2.06v1.118c.014.045.021.094.033.141h11.462c-.712-1.116-2.674-2.176-5.1-3.111,1.414.514,2.866,1.011,4.469,1.455,0-.129.01-.263.017-.4-.016-.009-.045-.016-.059-.023a3.079,3.079,0,0,1-1.163-1.163,8.7,8.7,0,0,1-2.6.228c-.275-.428-1.37-.564-1.271-1.126-.343-.8,2.248-.552,1.9-1.349a2.47,2.47,0,0,0-1.464-1.06,19.239,19.239,0,0,1-1.72,2.74Z" transform="translate(71.094 26.571)" fill="#f04a00"/>
    <path id="Path_226" data-name="Path 226" d="M310.954,54.539a28.578,28.578,0,0,1,3.193-.689l.063-.144c-2.39-.1-1.215-1.468-1.455-2.333l-.38.007-1.18,2.636C311.112,54.2,311.034,54.363,310.954,54.539Z" transform="translate(74.41 23.857)" fill="#f04a00"/>
    <path id="Path_227" data-name="Path 227" d="M325.493,51.243c-.9.073-1.748.211-2.589.355l.383.9A13.269,13.269,0,0,1,325.493,51.243Z" transform="translate(83.264 23.762)" fill="#f04a00"/>
    <path id="Path_228" data-name="Path 228" d="M327.041,60.386a4.363,4.363,0,0,1,.143.587,1.98,1.98,0,0,0,.392.11c.028.129-.117.195-.357.228.01.111.028.225.028.334a.433.433,0,0,1-.01.045c.327.026.634.033.975.07a1.789,1.789,0,0,1-1.072.406,2.1,2.1,0,0,1-.068.324c1.059.191,2.69.181,2.409.848h-3.229a7.648,7.648,0,0,1-3.531.622H321.8v1.259h22.326V63.958a5.718,5.718,0,0,1-2.815-.888,6.587,6.587,0,0,1-2.307.04c-.084-.555-.094-1.085.635-1.351.146-.009.247.005.381.005-.094-.134-.195-.286-.294-.435-1.6.026-1.793-.449-1.993-.923a5.5,5.5,0,0,0,1.342-.134c-.446-.776-.926-1.711-1.436-2.794h-1.173a3.41,3.41,0,0,1,.822-.759c-.113-.251-.226-.493-.343-.757l-2.568-5.839c-2.018.439-4.067.867-6.168,1.274-1.391.721-2.73,1.459-3.982,2.228l1.793,4.206Q326.976,60.08,327.041,60.386Zm.534-2.232a7.978,7.978,0,0,1,3.813,0v.9c-1.8-.186-1.647.317-3.177.225C328.471,58.739,327.052,58.791,327.576,58.154Z" transform="translate(82.448 22.932)" fill="#f04a00"/>
    <path id="Path_229" data-name="Path 229" d="M314.741,57.981c.084.287-.327.761.085,1.072a5.238,5.238,0,0,0-1.017-.188.579.579,0,0,1,.035.529h1.529c-.037-.056-.049-.115-.127-.165a3.4,3.4,0,0,0,.472.087c.244-.04.467-.087.676-.139V58.136Q315.48,58.068,314.741,57.981Z" transform="translate(76.526 28.754)" fill="#f04a00"/>
    <path id="Path_230" data-name="Path 230" d="M340.959,38.155a7.541,7.541,0,0,1-3.31,1.1,12.254,12.254,0,0,0-.315,1.489c1.335.442,2.724.867,4.257,1.241-.709.348-2.063.468-1.9,1.125-1.28-.026-1.891-.115-2.514-.139,0,.127.017.251.023.378a20.563,20.563,0,0,1,2.491.663c3.964-1.967,5.693-5.526,3.813-9.46a14.23,14.23,0,0,0-4.049.914,12.256,12.256,0,0,0-1.515,2.909A10.02,10.02,0,0,1,340.959,38.155Z" transform="translate(93.836 11.394)" fill="#f04a00"/>
    <path id="Path_231" data-name="Path 231" d="M340.321,39.455l-3.029-1.186a13.926,13.926,0,0,0-.12,1.635C338.41,39.822,338.258,39.246,340.321,39.455Z" transform="translate(93.836 14.149)" fill="#f04a00"/>
    <path id="Path_232" data-name="Path 232" d="M343.337,43.172c-.4-1.062-2.883-1.381-3.177-2.477a7.934,7.934,0,0,0-2.77,1.064,11.645,11.645,0,0,0,1.093,2.773,14.181,14.181,0,0,0,.8,1.292c2.507-1.375,5.359-2.627,7.225-4.229a43.964,43.964,0,0,0-6.353-1.351C340.226,41.428,344.54,42.286,343.337,43.172Z" transform="translate(93.997 15.612)" fill="#f04a00"/>
    <path id="Path_233" data-name="Path 233" d="M343.147,38.505a18.265,18.265,0,0,0-2.707,1,51.146,51.146,0,0,0,6.609,2.366c-.449-.265-.81-.491-1.078-.681A12.506,12.506,0,0,1,343.147,38.505Z" transform="translate(96.257 14.324)" fill="#f04a00"/>
    <path id="Path_234" data-name="Path 234" d="M340.007,60.357a3.314,3.314,0,0,1,1.868-.681,7.354,7.354,0,0,1,2.69.681c.479.2.933.383,1.37.55a.988.988,0,0,1,.122-.059c3.515.225,6.809.528,7.93,1.6a16.44,16.44,0,0,0,9.7-3.071c-1.919-.409-2.343-1.567.79-1.683v1.046c.174-.15.359-.286.528-.444.038-.035.07-.073.108-.108v-.721h.714c.275-.292.531-.592.775-.9-.292-.15-.592-.3-.857-.456a27.478,27.478,0,0,1-4.68-.2,7.157,7.157,0,0,1-3.094,3.123c.568.48,1.4,1,1.426,1.812-3.752.989-8.116-.073-9.693-1.332a15,15,0,0,1-5.524-3.294c-.32-.289-.625-.6-.923-.917-1.952,1.193-4.1,2.314-6.105,3.489v2.413c.884.205,1.581.477,1.346,1.079A4.7,4.7,0,0,1,340.007,60.357Z" transform="translate(93.817 26.772)" fill="#f04a00"/>
    <path id="Path_235" data-name="Path 235" d="M343.724,41.233c3.306.01.514-.151.862-.5C344.3,40.9,344.016,41.068,343.724,41.233Z" transform="translate(98.69 15.974)" fill="#f04a00"/>
    <path id="Path_236" data-name="Path 236" d="M344.324,31.779a8.417,8.417,0,0,0,.858,1.516c.642-.658,2.114-1.024,3.536-1.4a16.393,16.393,0,0,0-4.394-.111Z" transform="translate(99.135 9.268)" fill="#f04a00"/>
    <path id="Path_237" data-name="Path 237" d="M344.31,40.752a2.046,2.046,0,0,1,.247-.082c.125.024.244.052.355.082-.108-.061-.2-.115-.3-.172Z" transform="translate(99.125 15.861)" fill="#f04a00"/>
    <path id="Path_238" data-name="Path 238" d="M346.142,31.805a13.787,13.787,0,0,0-5.527,2.112,10.587,10.587,0,0,1,.333,1.767,19.056,19.056,0,0,0,2.279-.456,6.484,6.484,0,0,1,1.967-.846A2.359,2.359,0,0,0,346.142,31.805Z" transform="translate(96.387 9.36)" fill="#f04a00"/>
    <path id="Path_239" data-name="Path 239" d="M352.675,36.133a35.553,35.553,0,0,1-1.032-3.487,15.925,15.925,0,0,0-1.677-.55c-.406-.1-.823-.162-1.24-.237-1.347.362-2.869.662-3.417,1.306a1.67,1.67,0,0,0-.3,1.024,11.151,11.151,0,0,1,1.212-.085A11.452,11.452,0,0,1,352.675,36.133Z" transform="translate(99.645 9.4)" fill="#f04a00"/>
    <path id="Path_240" data-name="Path 240" d="M341.832,37.637a3.207,3.207,0,0,1-.663,1.384c.366-.071.771-.143,1.194-.212-.03-.047-.07-.092-.1-.139A4.727,4.727,0,0,1,341.832,37.637Z" transform="translate(96.797 13.681)" fill="#f04a00"/>
    <path id="Path_241" data-name="Path 241" d="M347.315,33.371a3.451,3.451,0,0,1,.028-.373,17.164,17.164,0,0,0-2.737.5,6.185,6.185,0,0,1-1.967.846c-1.421.989-1.318,2.343-1.107,3.776a5.993,5.993,0,0,1,1.866-3.007A7.122,7.122,0,0,1,347.315,33.371Z" transform="translate(96.975 10.243)" fill="#f04a00"/>
    <path id="Path_242" data-name="Path 242" d="M337.147,49.391V56.67c2.57.625,4.64,1.612,5.1,2.7-1.367-.242-3.346-.265-5.1-.369V62.84c1.967-1.1,3.842-2.234,5.991-3.271a20.983,20.983,0,0,1-4.73-10.178Z" transform="translate(93.817 22.39)" fill="#f04a00"/>
    <path id="Path_243" data-name="Path 243" d="M338.407,59.414l.005-.007c-.36-.031-.8-.031-1.266-.023v.03Z" transform="translate(93.817 29.79)" fill="#f04a00"/>
    <path id="Path_244" data-name="Path 244" d="M340.886,39.208c.28.851-1.252,1.058-1.9,1.579,3.01.282,4.086,1.253,8.257,1.126C347.754,40.918,342.97,40.016,340.886,39.208Z" transform="translate(95.176 14.845)" fill="#f04a00"/>
    <path id="Path_245" data-name="Path 245" d="M356.062,31.682a6.287,6.287,0,0,1-.954,2.622,1.823,1.823,0,0,1-1.4.543,9.194,9.194,0,0,1-3.214-1.105c-.11-.052-.195-.082-.3-.132a4.276,4.276,0,0,0,.632.364c-1.337.729-1.5,1.682-1.05,2.631a16.422,16.422,0,0,1,1.431,1.154,14.758,14.758,0,0,1,1.5,1.631,11.139,11.139,0,0,0,1.292.665c1.076-.992,2.991-1.908,1.908-2.477.467-.082.893-.174,1.306-.27l-.138-5.625Z" transform="translate(103.011 9.268)" fill="#f04a00"/>
    <path id="Path_246" data-name="Path 246" d="M351.855,37.691l.05.078c.961-.212,3.052-.024,2.305-.843a12.027,12.027,0,0,0,1.368.045l-.033-1.372A10.053,10.053,0,0,0,351.855,37.691Z" transform="translate(104.715 12.171)" fill="#f04a00"/>
    <path id="Path_247" data-name="Path 247" d="M354.258,56.105c.087-.111.186-.218.27-.331-.245,0-.456,0-.592,0A.975.975,0,0,0,354.258,56.105Z" transform="translate(106.257 27.117)" fill="#f04a00"/>
    <path id="Path_248" data-name="Path 248" d="M338.6,36.22c1.245-.378,2.514-.749,3.837-1.1-.205-.662-.451-1.307-.714-1.948A13.3,13.3,0,0,0,338.6,36.22Z" transform="translate(94.895 10.373)" fill="#f04a00"/>
    <path id="Path_249" data-name="Path 249" d="M355.616,51.467c.625-.6,4-.233,5.08-.675,1.219.225-4.22,2.138-5.08.9-1.621.251.253,1.743-1.273,2.026-.634-.009-1.3-.009-1.974-.005a20.634,20.634,0,0,1,2.067,1.353c.024.019.044.038.068.057,3.5-.768,7.119-1.494,10.759-2.211a12.719,12.719,0,0,0-2.321-4.7,19.274,19.274,0,0,0-4.157-3.658c-1.724.115-3.463.226-5.077.381.8.3,1.91.442.635.9-1.173-.035-.388-.764-1.267-.9q-5.312,1.721-10.832,3.365,2.225,1.332,5.383,2.9C350.393,50.186,353.419,49.535,355.616,51.467Zm2.54-5.406c.578-.066.541,1.522-1.908,1.125C355.949,46.481,357.958,46.593,358.156,46.062Zm-2.54,2.477c2.51.291,1.3-.742,3.807-.451-.8.919-.876,2.093-3.175,2.479C353.544,50.276,356.311,49.446,355.616,48.539Zm-2.54,0c-.724.733-3.875.848-5.08.226C348.468,48.257,351.556,48.677,353.076,48.539Z" transform="translate(97.594 18.806)" fill="#f04a00"/>
    <path id="Path_250" data-name="Path 250" d="M339.036,40.631a3.252,3.252,0,0,0-1.845-.909,12.884,12.884,0,0,0,.3,2.208A4.686,4.686,0,0,0,339.036,40.631Z" transform="translate(93.85 15.225)" fill="#f04a00"/>
    <path id="Path_251" data-name="Path 251" d="M351.287,41.484a20.022,20.022,0,0,0-3.142-.334c-.144.308-.526.928-1.908,1.351-.745-.037-.536-.411-.632-.675-1.2.024-.442.743-1.908.675.592.992,3.5,1.163,3.813,2.253-1.173.181-1.929-1.711-4.448-1.8-3.633.952,2.935.684,2.544,1.8-1.306.4-4.194-.01-4.448-.675-.869.451-1.711.911-2.54,1.377a17.224,17.224,0,0,0,3.193,3.271A29.365,29.365,0,0,0,344.72,50.7c2.954-.888,5.8-1.812,8.5-2.789-.883-.512-4.422-.084-6.353-.225.881-.514,4.42-.084,6.353-.225,1.7-.056,2.413-.951,3.807-.451.134-.449-2.693-.963-1.267-1.126q3.847-.24,3.172,1.126c.707-.059,1.452-.1,2.2-.148a55.572,55.572,0,0,0-6.434-3.646C353.4,42.569,352.272,42,351.287,41.484Zm-1.875,2.369c-.738-.037-1.128.049-1.267.225-1.257-.157-1.7-.6-1.908-1.126.514-.195,1.739-.134,1.908-.451C349.763,42.527,349.4,43.255,349.411,43.854Z" transform="translate(94.906 16.284)" fill="#f04a00"/>
    <path id="Path_252" data-name="Path 252" d="M351.76,54.338a6.339,6.339,0,0,1,.867,3.165,6.585,6.585,0,0,1-.071.674,5.882,5.882,0,0,1-.472,1.844,15.356,15.356,0,0,0,3.3.2,11.785,11.785,0,0,0-2.5-1.844,15.256,15.256,0,0,0,5.245,1.694,12.569,12.569,0,0,0,2.053-4.88,15.545,15.545,0,0,0-1.623.071c-.3-1.257.042-2.286,1.845-2.8a13.187,13.187,0,0,0-.406-3c-3.642.7-7.2,1.421-10.583,2.208A9.781,9.781,0,0,1,351.76,54.338Z" transform="translate(102.907 22.446)" fill="#f04a00"/>
    <path id="Path_253" data-name="Path 253" d="M355.666,43.213l-.1-4.154a5.307,5.307,0,0,0-2.714-1.5c.578-.42,1.7.2,2.7.952l-.021-.928c-1.4.021-.938-.618-2.042-.7-.55.047-1.048.113-1.511.19a17.024,17.024,0,0,1,2.295,6.144Z" transform="translate(104.804 13.119)" fill="#f04a00"/>
  </g>
</svg>
