<svg xmlns="http://www.w3.org/2000/svg" width="12.6" height="15.273" viewBox="0 0 12.6 15.273">
  <g id="ic-loc-outline" transform="translate(-39.351 0.1)">
    <g id="Group_1771" data-name="Group 1771" transform="translate(39.451)">
      <g id="Group_1770" data-name="Group 1770">
        <path id="Path_1033" data-name="Path 1033" d="M50.035,1.867a6.08,6.08,0,0,0-8.768,0,6.425,6.425,0,0,0-1.816,4.508c0,3.445,3.168,6.31,4.869,7.849.236.214.441.4.6.555a1.047,1.047,0,0,0,1.454,0c.163-.156.367-.341.6-.555,1.7-1.539,4.869-4.4,4.869-7.849A6.425,6.425,0,0,0,50.035,1.867ZM46.414,13.561c-.242.219-.45.407-.622.573a.2.2,0,0,1-.282,0c-.172-.165-.381-.354-.622-.573-1.6-1.447-4.578-4.141-4.578-7.186a5.343,5.343,0,1,1,10.683,0C50.992,9.42,48.014,12.114,46.414,13.561Z" transform="translate(-39.451 0)" fill="#505050" stroke="#707070" stroke-width="0.2"/>
      </g>
    </g>
    <g id="Group_1773" data-name="Group 1773" transform="translate(42.842 3.325)">
      <g id="Group_1772" data-name="Group 1772" transform="translate(0)">
        <path id="Path_1034" data-name="Path 1034" d="M163.379,112.938a2.809,2.809,0,1,0,2.809,2.809A2.813,2.813,0,0,0,163.379,112.938Zm0,4.736a1.926,1.926,0,1,1,1.926-1.926A1.929,1.929,0,0,1,163.379,117.674Z" transform="translate(-160.57 -112.938)" fill="#505050" stroke="#707070" stroke-width="0.2"/>
      </g>
    </g>
  </g>
</svg>
