<svg id="ic-paper-gry" xmlns="http://www.w3.org/2000/svg" width="21.502" height="22.489" viewBox="0 0 21.502 22.489">
  <path id="Path_9278" data-name="Path 9278" d="M14.25,0H2.75A2.748,2.748,0,0,0,0,2.75v15.5A2.748,2.748,0,0,0,2.75,21h7.38l.22-1.23a2.785,2.785,0,0,1,.76-1.47L17,12.42V2.75A2.748,2.748,0,0,0,14.25,0ZM4,4H8A1,1,0,0,1,8,6H4A1,1,0,0,1,4,4ZM9,14H4a1,1,0,0,1,0-2H9a1,1,0,0,1,0,2Zm4-4H4A1,1,0,0,1,4,8h9a1,1,0,0,1,0,2Z" fill="#cecece"/>
  <path id="Path_9279" data-name="Path 9279" d="M12.344,20.978a.566.566,0,0,1-.557-.665l.4-2.268a.568.568,0,0,1,.157-.3l5.6-5.6a1.152,1.152,0,0,1,1.735-.134l.934.934a1.322,1.322,0,0,1,0,1.868l-5.6,5.6a.558.558,0,0,1-.3.157l-2.268.4a.539.539,0,0,1-.1.009Zm2.268-.966h.008Z" transform="translate(0.498 1.511)" fill="#7c7c7c"/>
</svg>
