<svg xmlns="http://www.w3.org/2000/svg" width="24.499" height="24.502" viewBox="0 0 24.499 24.502">
  <g id="ic-phone" transform="translate(-1152.503 -59.498)">
    <rect id="Rectangle_78" data-name="Rectangle 78" width="24" height="24" transform="translate(1153.002 60)" fill="none"/>
    <g id="phone-call_1_" data-name="phone-call(1)" transform="translate(1152.658 60)">
      <g id="Group_1744" data-name="Group 1744" transform="translate(0.344 0)">
        <path id="Path_1020" data-name="Path 1020" d="M18.624,40.408a2.277,2.277,0,0,0-1.652-.757A2.355,2.355,0,0,0,15.3,40.4l-1.544,1.539c-.127-.068-.254-.132-.376-.2-.176-.088-.342-.171-.484-.259a16.781,16.781,0,0,1-4.021-3.665,9.9,9.9,0,0,1-1.319-2.081c.4-.366.772-.748,1.134-1.114.137-.137.274-.279.41-.415a2.242,2.242,0,0,0,0-3.381L7.767,29.5c-.151-.151-.308-.308-.454-.464-.293-.3-.6-.616-.919-.909a2.313,2.313,0,0,0-1.637-.718,2.393,2.393,0,0,0-1.661.718l-.01.01L1.425,29.81a3.575,3.575,0,0,0-1.06,2.272A8.565,8.565,0,0,0,.99,35.708a21.038,21.038,0,0,0,3.738,6.235,22.994,22.994,0,0,0,7.657,6,11.929,11.929,0,0,0,4.3,1.27c.1,0,.21.01.308.01a3.682,3.682,0,0,0,2.819-1.212c0-.01.015-.015.02-.024a11.108,11.108,0,0,1,.855-.884c.21-.2.425-.41.635-.63a2.437,2.437,0,0,0,.738-1.691,2.348,2.348,0,0,0-.752-1.676Zm1.749,5.145s0,0,0,0c-.191.205-.386.391-.6.6a12.848,12.848,0,0,0-.943.977A2.355,2.355,0,0,1,17,47.9c-.073,0-.151,0-.225,0a10.6,10.6,0,0,1-3.811-1.143,21.7,21.7,0,0,1-7.212-5.648,19.837,19.837,0,0,1-3.518-5.858,6.977,6.977,0,0,1-.547-3.059,2.243,2.243,0,0,1,.674-1.451l1.666-1.666a1.111,1.111,0,0,1,.743-.347,1.045,1.045,0,0,1,.713.342l.015.015c.3.279.581.567.88.875.151.156.308.313.464.474l1.334,1.334a.933.933,0,0,1,0,1.515c-.142.142-.279.283-.42.42-.41.42-.8.811-1.226,1.192-.01.01-.02.015-.024.024a1,1,0,0,0-.254,1.109l.015.044A10.709,10.709,0,0,0,7.84,38.644l0,0A17.934,17.934,0,0,0,12.184,42.6a6.671,6.671,0,0,0,.6.327c.176.088.342.171.484.259.02.01.039.024.059.034a1.059,1.059,0,0,0,.484.122A1.045,1.045,0,0,0,14.554,43l1.671-1.671a1.105,1.105,0,0,1,.738-.366,1,1,0,0,1,.7.357l.01.01,2.692,2.692A.966.966,0,0,1,20.373,45.553Z" transform="translate(-0.344 -26.067)" fill="#505050" stroke="#505050" stroke-width="1"/>
        <path id="Path_1021" data-name="Path 1021" d="M245.487,87.234a6.288,6.288,0,0,1,5.121,5.121.656.656,0,0,0,.65.547.871.871,0,0,0,.112-.01.66.66,0,0,0,.542-.762,7.6,7.6,0,0,0-6.2-6.2.663.663,0,0,0-.762.537A.652.652,0,0,0,245.487,87.234Z" transform="translate(-232.992 -81.727)" fill="#505050" stroke="#505050" stroke-width="1"/>
        <path id="Path_1022" data-name="Path 1022" d="M259.744,10.212a12.52,12.52,0,0,0-10.2-10.2.659.659,0,1,0-.215,1.3,11.183,11.183,0,0,1,9.117,9.118.656.656,0,0,0,.65.547.872.872,0,0,0,.112-.01A.647.647,0,0,0,259.744,10.212Z" transform="translate(-236.637 0)" fill="#505050" stroke="#505050" stroke-width="1"/>
      </g>
    </g>
  </g>
</svg>
