<svg xmlns="http://www.w3.org/2000/svg" width="139" height="22" viewBox="0 0 139 22">
  <g id="ic-star" transform="translate(-177 -506)">
    <path id="Polygon_4" data-name="Polygon 4" d="M10.594,1.94a1,1,0,0,1,1.812,0l2.311,4.946a1,1,0,0,0,.781.569l5.4.683a1,1,0,0,1,.561,1.72l-3.978,3.752a1,1,0,0,0-.3.914l1.024,5.381a1,1,0,0,1-1.467,1.062l-4.758-2.634a1,1,0,0,0-.969,0L6.258,20.967a1,1,0,0,1-1.467-1.062l1.024-5.381a1,1,0,0,0-.3-.914L1.541,9.857A1,1,0,0,1,2.1,8.138l5.4-.683a1,1,0,0,0,.781-.569Z" transform="translate(177 506)" fill="#cecece"/>
    <path id="Polygon_5" data-name="Polygon 5" d="M10.594,1.94a1,1,0,0,1,1.812,0l2.311,4.946a1,1,0,0,0,.781.569l5.4.683a1,1,0,0,1,.561,1.72l-3.978,3.752a1,1,0,0,0-.3.914l1.024,5.381a1,1,0,0,1-1.467,1.062l-4.758-2.634a1,1,0,0,0-.969,0L6.258,20.967a1,1,0,0,1-1.467-1.062l1.024-5.381a1,1,0,0,0-.3-.914L1.541,9.857A1,1,0,0,1,2.1,8.138l5.4-.683a1,1,0,0,0,.781-.569Z" transform="translate(206 506)" fill="#cecece"/>
    <path id="Polygon_6" data-name="Polygon 6" d="M10.594,1.94a1,1,0,0,1,1.812,0l2.311,4.946a1,1,0,0,0,.781.569l5.4.683a1,1,0,0,1,.561,1.72l-3.978,3.752a1,1,0,0,0-.3.914l1.024,5.381a1,1,0,0,1-1.467,1.062l-4.758-2.634a1,1,0,0,0-.969,0L6.258,20.967a1,1,0,0,1-1.467-1.062l1.024-5.381a1,1,0,0,0-.3-.914L1.541,9.857A1,1,0,0,1,2.1,8.138l5.4-.683a1,1,0,0,0,.781-.569Z" transform="translate(235 506)" fill="#cecece"/>
    <path id="Polygon_7" data-name="Polygon 7" d="M10.594,1.94a1,1,0,0,1,1.812,0l2.311,4.946a1,1,0,0,0,.781.569l5.4.683a1,1,0,0,1,.561,1.72l-3.978,3.752a1,1,0,0,0-.3.914l1.024,5.381a1,1,0,0,1-1.467,1.062l-4.758-2.634a1,1,0,0,0-.969,0L6.258,20.967a1,1,0,0,1-1.467-1.062l1.024-5.381a1,1,0,0,0-.3-.914L1.541,9.857A1,1,0,0,1,2.1,8.138l5.4-.683a1,1,0,0,0,.781-.569Z" transform="translate(264 506)" fill="#cecece"/>
    <path id="Polygon_8" data-name="Polygon 8" d="M10.594,1.94a1,1,0,0,1,1.812,0l2.311,4.946a1,1,0,0,0,.781.569l5.4.683a1,1,0,0,1,.561,1.72l-3.978,3.752a1,1,0,0,0-.3.914l1.024,5.381a1,1,0,0,1-1.467,1.062l-4.758-2.634a1,1,0,0,0-.969,0L6.258,20.967a1,1,0,0,1-1.467-1.062l1.024-5.381a1,1,0,0,0-.3-.914L1.541,9.857A1,1,0,0,1,2.1,8.138l5.4-.683a1,1,0,0,0,.781-.569Z" transform="translate(293 506)" fill="#cecece"/>
  </g>
</svg>
