<svg xmlns="http://www.w3.org/2000/svg" width="50" height="50" viewBox="0 0 50 50">
  <g id="ic-top" transform="translate(-1355 -641)">
    <g id="chat" transform="translate(16 -33)">
      <circle id="Ellipse_2" data-name="Ellipse 2" cx="25" cy="25" r="25" transform="translate(1339 674)" fill="#7c7c7c"/>
    </g>
    <g id="Group_1822" data-name="Group 1822" transform="translate(1.5 3.502)">
      <path id="Arrow_Forward" data-name="Arrow Forward" d="M21.774,7.491a.708.708,0,0,0-.2-.486L14.839.2a.675.675,0,0,0-.962,0,.691.691,0,0,0,0,.972L19.452,6.8H.68a.687.687,0,0,0,0,1.375H19.451l-5.574,5.631a.692.692,0,0,0,0,.972.676.676,0,0,0,.962,0l6.736-6.8A.7.7,0,0,0,21.774,7.491Z" transform="translate(1371.5 673.273) rotate(-90)" fill="#fff" stroke="#fff" stroke-width="1" fill-rule="evenodd"/>
    </g>
  </g>
</svg>
