<svg xmlns="http://www.w3.org/2000/svg" width="24" height="24" viewBox="0 0 24 24">
  <g id="ic-twt-bl" transform="translate(-1013 -811)">
    <rect id="Rectangle_282" data-name="Rectangle 282" width="24" height="24" rx="2" transform="translate(1013 811)" fill="#404040"/>
    <g id="twitter" transform="translate(1017.308 768.792)">
      <g id="Group_1705" data-name="Group 1705" transform="translate(0 48)">
        <path id="Path_1017" data-name="Path 1017" d="M15.025,49.445a6.422,6.422,0,0,1-1.775.486,3.063,3.063,0,0,0,1.355-1.7,6.156,6.156,0,0,1-1.953.746,3.08,3.08,0,0,0-5.328,2.106,3.172,3.172,0,0,0,.071.7,8.719,8.719,0,0,1-6.349-3.222,3.081,3.081,0,0,0,.947,4.117A3.042,3.042,0,0,1,.6,52.3v.034A3.1,3.1,0,0,0,3.069,55.36a3.074,3.074,0,0,1-.808.1,2.724,2.724,0,0,1-.583-.053,3.11,3.11,0,0,0,2.878,2.146A6.189,6.189,0,0,1,.737,58.868,5.77,5.77,0,0,1,0,58.826a8.672,8.672,0,0,0,4.725,1.382,8.707,8.707,0,0,0,8.767-8.765c0-.136,0-.268-.011-.4A6.145,6.145,0,0,0,15.025,49.445Z" transform="translate(0 -48)" fill="#fff"/>
      </g>
    </g>
  </g>
</svg>
