<svg xmlns="http://www.w3.org/2000/svg" xmlns:xlink="http://www.w3.org/1999/xlink" width="1440" height="311" viewBox="0 0 1440 311">
  <defs>
    <clipPath id="clip-path">
      <rect id="Rectangle_693" data-name="Rectangle 693" width="1440" height="311" transform="translate(0 679)" fill="none" stroke="#707070" stroke-width="1"/>
    </clipPath>
    <linearGradient id="linear-gradient" x1="0.5" x2="0.5" y2="1" gradientUnits="objectBoundingBox">
      <stop offset="0" stop-color="#0e65ba"/>
      <stop offset="1" stop-color="#052646"/>
    </linearGradient>
  </defs>
  <g id="ic-wave" transform="translate(0 -679)" clip-path="url(#clip-path)">
    <path id="Path_9183" data-name="Path 9183" d="M1658.329,78.3c-5.167,39.662-14.666,79.569-38.731,116.436s-63.891,70.761-119.083,90.86c-74.683,27.2-167.186,26.231-252.84,18.578s-171.334-21.215-257.524-16.417c-87.488,4.868-171.827,29.335-234.066,67.9-63.738,39.493-103.318,91.98-166.279,131.953-67.793,43.036-161.919,69.6-258.614,72.991s-195.023-16.434-270.15-54.463V671.473H1664.027V77.617Z" transform="matrix(0.998, 0.07, -0.07, 0.998, -162.814, 375.271)" fill="url(#linear-gradient)"/>
  </g>
</svg>
