<svg xmlns="http://www.w3.org/2000/svg" width="108" height="76.393" viewBox="0 0 108 76.393">
  <g id="mobile-logo" transform="translate(-10.016 -51.665)">
    <g id="Group_402" data-name="Group 402" transform="translate(10.016 119.166)">
      <g id="Group_401" data-name="Group 401">
        <path id="Path_366" data-name="Path 366" d="M10.016,232.058v-6.793h2.729a2.049,2.049,0,1,1,0,4.094H10.861v2.7ZM14,227.312a1.263,1.263,0,0,0-1.355-1.293H10.861v2.587h1.782A1.263,1.263,0,0,0,14,227.312Z" transform="translate(-10.016 -225.163)" fill="#fff"/>
        <path id="Path_367" data-name="Path 367" d="M23.481,232.141a2.46,2.46,0,0,1,2.424-2.577,2.389,2.389,0,0,1,2.363,2.638v.194H24.286a1.733,1.733,0,0,0,1.772,1.7,2.149,2.149,0,0,0,1.517-.621l.367.5a2.671,2.671,0,0,1-1.955.753A2.439,2.439,0,0,1,23.481,232.141Zm2.413-1.945a1.641,1.641,0,0,0-1.609,1.64h3.228A1.594,1.594,0,0,0,25.895,230.2Z" transform="translate(-17.994 -227.71)" fill="#fff"/>
        <path id="Path_368" data-name="Path 368" d="M37.463,232.141a2.439,2.439,0,1,1,2.434,2.587A2.413,2.413,0,0,1,37.463,232.141Zm4.063,0a1.654,1.654,0,1,0-1.63,1.9A1.71,1.71,0,0,0,41.526,232.141Z" transform="translate(-26.279 -227.71)" fill="#fff"/>
        <path id="Path_369" data-name="Path 369" d="M53.111,233.862v2.617h-.764v-6.793h.764v.733a2.057,2.057,0,0,1,1.66-.855c1.293,0,2.189.978,2.189,2.577s-.9,2.587-2.189,2.587A2.015,2.015,0,0,1,53.111,233.862Zm3.045-1.721c0-1.09-.591-1.894-1.579-1.894a1.818,1.818,0,0,0-1.467.784v2.22a1.827,1.827,0,0,0,1.467.794C55.565,234.045,56.156,233.23,56.156,232.141Z" transform="translate(-35.098 -227.71)" fill="#fff"/>
        <path id="Path_370" data-name="Path 370" d="M66.634,232.058v-6.793H67.4v6.793Z" transform="translate(-43.563 -225.163)" fill="#fff"/>
        <path id="Path_371" data-name="Path 371" d="M71.447,232.141a2.46,2.46,0,0,1,2.424-2.577,2.389,2.389,0,0,1,2.363,2.638v.194H72.251a1.733,1.733,0,0,0,1.772,1.7,2.149,2.149,0,0,0,1.517-.621l.367.5a2.671,2.671,0,0,1-1.955.753A2.439,2.439,0,0,1,71.447,232.141Zm2.414-1.945a1.641,1.641,0,0,0-1.609,1.64H75.48A1.6,1.6,0,0,0,73.861,230.2Z" transform="translate(-46.415 -227.71)" fill="#fff"/>
        <path id="Path_372" data-name="Path 372" d="M91.971,232.141a2.43,2.43,0,0,1,2.455-2.577,2.1,2.1,0,0,1,1.8.855l-.509.469a1.459,1.459,0,0,0-1.253-.642,1.911,1.911,0,0,0,0,3.8,1.484,1.484,0,0,0,1.253-.641l.509.469a2.1,2.1,0,0,1-1.8.855A2.433,2.433,0,0,1,91.971,232.141Z" transform="translate(-58.576 -227.71)" fill="#fff"/>
        <path id="Path_373" data-name="Path 373" d="M107.694,234.6v-.56a2.127,2.127,0,0,1-1.629.683,1.638,1.638,0,0,1-1.721-1.63,1.611,1.611,0,0,1,1.721-1.619,2.056,2.056,0,0,1,1.629.672v-.886c0-.662-.529-1.038-1.242-1.038a1.954,1.954,0,0,0-1.507.682l-.357-.529a2.575,2.575,0,0,1,1.966-.815c1.039,0,1.9.468,1.9,1.66V234.6Zm0-1.039v-.927a1.648,1.648,0,0,0-1.354-.611,1.082,1.082,0,1,0,0,2.149A1.647,1.647,0,0,0,107.694,233.566Z" transform="translate(-65.907 -227.71)" fill="#fff"/>
        <path id="Path_374" data-name="Path 374" d="M118.038,234.634v-4.919h.764v.8a2.089,2.089,0,0,1,1.639-.9v.784a1.341,1.341,0,0,0-.305-.031,1.8,1.8,0,0,0-1.334.784v3.483Z" transform="translate(-74.021 -227.739)" fill="#fff"/>
        <path id="Path_375" data-name="Path 375" d="M125.845,226.134a.514.514,0,1,1,1.029,0,.514.514,0,0,1-1.029,0Zm.132,6.131v-4.919h.764v4.919Z" transform="translate(-78.647 -225.37)" fill="#fff"/>
        <path id="Path_376" data-name="Path 376" d="M134.955,234.6v-3.218c0-.865-.438-1.141-1.1-1.141a1.9,1.9,0,0,0-1.456.764v3.6h-.764v-4.919h.764v.713a2.44,2.44,0,0,1,1.752-.835,1.4,1.4,0,0,1,1.568,1.589V234.6Z" transform="translate(-82.078 -227.71)" fill="#fff"/>
        <path id="Path_377" data-name="Path 377" d="M144.87,235.868l.387-.57a1.879,1.879,0,0,0,1.6.672,1.409,1.409,0,0,0,1.579-1.477v-.7a2.055,2.055,0,0,1-1.65.876c-1.284,0-2.19-.958-2.19-2.546s.9-2.556,2.19-2.556a2.037,2.037,0,0,1,1.65.866v-.744h.764v4.777c0,1.629-1.141,2.138-2.343,2.138A2.513,2.513,0,0,1,144.87,235.868Zm3.565-2.679v-2.149a1.813,1.813,0,0,0-1.467-.795c-.988,0-1.579.784-1.579,1.874s.591,1.874,1.579,1.874A1.822,1.822,0,0,0,148.435,233.189Z" transform="translate(-89.757 -227.71)" fill="#fff"/>
        <path id="Path_378" data-name="Path 378" d="M165.434,231.91v-4.247h-.815v-.672h.815v-.377a1.4,1.4,0,0,1,1.425-1.6,1.429,1.429,0,0,1,1.039.377l-.315.5a.9.9,0,0,0-.611-.244c-.5,0-.774.346-.774.967v.377h1v.672h-1v4.247Z" transform="translate(-101.621 -225.015)" fill="#fff"/>
        <path id="Path_379" data-name="Path 379" d="M172.172,232.141a2.438,2.438,0,1,1,2.433,2.587A2.413,2.413,0,0,1,172.172,232.141Zm4.063,0a1.654,1.654,0,1,0-1.63,1.9A1.71,1.71,0,0,0,176.235,232.141Z" transform="translate(-106.097 -227.71)" fill="#fff"/>
        <path id="Path_380" data-name="Path 380" d="M187.056,234.634v-4.919h.764v.8a2.09,2.09,0,0,1,1.64-.9v.784a1.346,1.346,0,0,0-.305-.031,1.8,1.8,0,0,0-1.335.784v3.483Z" transform="translate(-114.916 -227.739)" fill="#fff"/>
        <path id="Path_381" data-name="Path 381" d="M202.519,233.862v2.617h-.764v-6.793h.764v.733a2.057,2.057,0,0,1,1.66-.855c1.294,0,2.19.978,2.19,2.577s-.9,2.587-2.19,2.587A2.015,2.015,0,0,1,202.519,233.862Zm3.045-1.721c0-1.09-.591-1.894-1.579-1.894a1.819,1.819,0,0,0-1.467.784v2.22a1.827,1.827,0,0,0,1.467.794C204.973,234.045,205.564,233.23,205.564,232.141Z" transform="translate(-123.625 -227.71)" fill="#fff"/>
        <path id="Path_382" data-name="Path 382" d="M215.345,232.141a2.46,2.46,0,0,1,2.424-2.577,2.389,2.389,0,0,1,2.363,2.638v.194h-3.982a1.733,1.733,0,0,0,1.772,1.7,2.151,2.151,0,0,0,1.518-.621l.366.5a2.671,2.671,0,0,1-1.955.753A2.439,2.439,0,0,1,215.345,232.141Zm2.413-1.945a1.641,1.641,0,0,0-1.609,1.64h3.228A1.6,1.6,0,0,0,217.759,230.2Z" transform="translate(-131.678 -227.71)" fill="#fff"/>
        <path id="Path_383" data-name="Path 383" d="M229.327,232.141a2.438,2.438,0,1,1,2.434,2.587A2.413,2.413,0,0,1,229.327,232.141Zm4.064,0a1.654,1.654,0,1,0-1.63,1.9A1.71,1.71,0,0,0,233.391,232.141Z" transform="translate(-139.962 -227.71)" fill="#fff"/>
        <path id="Path_384" data-name="Path 384" d="M244.975,233.862v2.617h-.764v-6.793h.764v.733a2.057,2.057,0,0,1,1.66-.855c1.293,0,2.189.978,2.189,2.577s-.9,2.587-2.189,2.587A2.015,2.015,0,0,1,244.975,233.862Zm3.045-1.721c0-1.09-.591-1.894-1.579-1.894a1.819,1.819,0,0,0-1.467.784v2.22a1.827,1.827,0,0,0,1.467.794C247.429,234.045,248.02,233.23,248.02,232.141Z" transform="translate(-148.781 -227.71)" fill="#fff"/>
        <path id="Path_385" data-name="Path 385" d="M258.5,232.058v-6.793h.764v6.793Z" transform="translate(-157.247 -225.163)" fill="#fff"/>
        <path id="Path_386" data-name="Path 386" d="M263.31,232.141a2.46,2.46,0,0,1,2.424-2.577A2.389,2.389,0,0,1,268.1,232.2v.194h-3.983a1.733,1.733,0,0,0,1.773,1.7,2.148,2.148,0,0,0,1.517-.621l.367.5a2.671,2.671,0,0,1-1.956.753A2.439,2.439,0,0,1,263.31,232.141Zm2.414-1.945a1.642,1.642,0,0,0-1.609,1.64h3.229A1.6,1.6,0,0,0,265.724,230.2Z" transform="translate(-160.098 -227.71)" fill="#fff"/>
      </g>
    </g>
    <g id="Group_15399" data-name="Group 15399" transform="translate(23.676 51.665)">
      <g id="Group_15398" data-name="Group 15398" transform="translate(0 0)">
        <g id="Group_15397" data-name="Group 15397">
          <path id="Path_1458" data-name="Path 1458" d="M649.232,27.276V44.8h18.2V27.276Zm8.695,15.7v0h-6.552v-6.55h6.552Zm0-7.345h-6.552V29.091h6.552Zm.81,7.348,0-6.038,6.055,6.038Zm.473-6.552h6.07l0,6.058Zm6.074-.8h-6.557V29.091h6.557Z" transform="translate(-618.447 -19.943)" fill="#fff" fill-rule="evenodd"/>
          <g id="Group_15395" data-name="Group 15395" transform="translate(21.475 47.021)">
            <path id="Path_1459" data-name="Path 1459" d="M642.45,68.515c-.281-.012-.564-.025-.853-.025s-.6.013-.9.025v.527c0,.68.021.916.043,1.247a2.863,2.863,0,0,0-.36-.031,3.342,3.342,0,0,0-.375.031c.047-.8.05-1.592.05-2.392A11.9,11.9,0,0,0,640,66.678c.107.011.3.031.38.031a3,3,0,0,0,.36-.031c-.022.288-.043.512-.043,1.5.265.008.534.02.795.02.323,0,.635-.012.956-.02,0-.138-.006-.774-.011-.907,0-.164-.006-.2-.024-.594.1.011.267.031.384.031.094,0,.271-.02.367-.031-.07.549-.074,1.822-.074,2.368a9.7,9.7,0,0,0,.052,1.242,3.469,3.469,0,0,0-.382-.031,3.139,3.139,0,0,0-.359.031c.005-.095.041-.73.041-.922Z" transform="translate(-640.002 -66.624)" fill="#fff"/>
            <path id="Path_1460" data-name="Path 1460" d="M645.085,68.241c.269,0,.859-.006,1.137-.036a.728.728,0,0,0-.023.186.606.606,0,0,0,.023.182c-.134-.012-.271-.021-.405-.024-.242-.006-.487-.012-.731-.012v1.426c.138,0,.814-.015,1.262-.038a.365.365,0,0,0-.03.172.456.456,0,0,0,.03.192c-.317-.022-.635-.031-.972-.031-.316,0-.648.009-.984.031.013-.222.022-.437.027-.658.014-.307.022-.947.022-1.19,0-.222-.008-1.236-.049-1.762.258.017.669.031.952.031.246,0,.593-.02.967-.031a.691.691,0,0,0-.025.165.705.705,0,0,0,.025.2l-.493-.026c-.194-.013-.249-.013-.731-.013Z" transform="translate(-639.964 -66.624)" fill="#fff"/>
            <path id="Path_1461" data-name="Path 1461" d="M649.53,69.705l-.217-.559c-.229-.009-.451-.021-.679-.021-.209,0-.419.012-.631.021a10.344,10.344,0,0,0-.418,1.142,1.388,1.388,0,0,0-.253-.031,1.235,1.235,0,0,0-.241.031l.613-1.358a23.3,23.3,0,0,0,.961-2.307.6.6,0,0,0,.174.028.576.576,0,0,0,.171-.028c.251.722.568,1.461.757,1.9.2.46.547,1.252.785,1.762-.076-.008-.266-.031-.408-.031s-.3.023-.391.031Zm-.866-2.181-.536,1.3c.184,0,.359.017.544.017.161,0,.321-.007.485-.017Z" transform="translate(-639.941 -66.624)" fill="#fff"/>
            <path id="Path_1462" data-name="Path 1462" d="M651.433,68.114c0-.23,0-.283-.014-.751-.005-.113-.014-.586-.018-.685a1.567,1.567,0,0,0,.361.031,2.483,2.483,0,0,0,.364-.031c-.031.792-.046,1.457-.046,2.267,0,.369.01.711.015,1h.091a11.486,11.486,0,0,0,1.224-.049.581.581,0,0,0-.027.212.464.464,0,0,0,.027.179c-.266-.014-.722-.031-1-.031-.339,0-.62.009-1,.031,0-.088.032-1.3.032-1.436Z" transform="translate(-639.904 -66.624)" fill="#fff"/>
            <path id="Path_1463" data-name="Path 1463" d="M655.413,69.567a4.9,4.9,0,0,0,.037.721c-.156-.016-.323-.031-.385-.031a3.043,3.043,0,0,0-.359.031c.022-.4.052-.806.052-1.207l-.006-1.47c0-.191,0-.375-.009-.582h-.262c-.047,0-.556.013-.821.039a.887.887,0,0,0,.026-.2.857.857,0,0,0-.026-.192c.412.028,1,.031,1.405.031.436,0,.9,0,1.4-.031a1.709,1.709,0,0,0-.023.2,1.248,1.248,0,0,0,.023.189,10.237,10.237,0,0,0-1.044-.039c-.006.189-.008.391-.008.592Z" transform="translate(-639.884 -66.624)" fill="#fff"/>
            <path id="Path_1464" data-name="Path 1464" d="M659.8,68.515c-.283-.012-.566-.025-.851-.025s-.6.013-.9.025v.527a11.162,11.162,0,0,0,.051,1.247,3.385,3.385,0,0,0-.368-.031,3.306,3.306,0,0,0-.373.031c.04-.8.049-1.592.049-2.392,0-.415-.019-.812-.057-1.217.106.011.3.031.381.031a3.4,3.4,0,0,0,.368-.031,12.219,12.219,0,0,0-.051,1.5c.26.008.531.02.8.02.318,0,.637-.012.954-.02,0-.138-.005-.774-.005-.907,0-.164-.009-.2-.031-.594.1.011.268.031.385.031.093,0,.268-.02.368-.031-.069.549-.076,1.822-.076,2.368a9.181,9.181,0,0,0,.054,1.242,3.586,3.586,0,0,0-.384-.031,3.134,3.134,0,0,0-.362.031c.01-.095.045-.73.045-.922Z" transform="translate(-639.852 -66.624)" fill="#fff"/>
            <path id="Path_1465" data-name="Path 1465" d="M666.289,67.415h-.054c-.063-.126-.243-.493-1.006-.493-.878,0-1.349.577-1.349,1.568a1.776,1.776,0,0,0,.325,1.1,1.121,1.121,0,0,0,.947.48,1.467,1.467,0,0,0,1.215-.6l.062.035-.062.521a2.7,2.7,0,0,1-1.325.333,1.749,1.749,0,0,1-1.879-1.819,1.826,1.826,0,0,1,2.049-1.908,2.942,2.942,0,0,1,1.233.26Z" transform="translate(-639.802 -66.624)" fill="#fff"/>
            <path id="Path_1466" data-name="Path 1466" d="M669.507,69.705l-.222-.559c-.226-.009-.447-.021-.675-.021-.209,0-.419.012-.627.021a11.448,11.448,0,0,0-.423,1.142,1.378,1.378,0,0,0-.255-.031,1.267,1.267,0,0,0-.238.031l.616-1.358a24,24,0,0,0,.957-2.307.586.586,0,0,0,.171.028.614.614,0,0,0,.176-.028c.25.722.567,1.461.759,1.9.2.46.544,1.252.783,1.762-.078-.008-.262-.031-.414-.031s-.292.023-.388.031Zm-.866-2.181-.537,1.3c.184,0,.363.017.544.017.164,0,.321-.007.485-.017Z" transform="translate(-639.768 -66.624)" fill="#fff"/>
            <path id="Path_1467" data-name="Path 1467" d="M673.085,68.708c.078.113.188.285.271.4.416.58.558.769.889,1.184a3.887,3.887,0,0,0-.467-.031,2.464,2.464,0,0,0-.432.031c-.074-.121-.193-.316-.271-.437-.266-.416-.591-.88-.877-1.279h-.126v.745c0,.153.023.832.023.97a2.6,2.6,0,0,0-.356-.031,2.626,2.626,0,0,0-.36.031c.035-1.035.043-1.151.043-2.168,0-.693,0-.763-.032-1.442a4.543,4.543,0,0,0,.519.028c.141,0,.749-.028.873-.028a1.074,1.074,0,0,1,.824.258.812.812,0,0,1,.244.588,1,1,0,0,1-.92.975Zm-1.013-.386c.1.009.224.018.367.018a.676.676,0,0,0,.714-.729.607.607,0,0,0-.222-.543.777.777,0,0,0-.485-.132c-.1,0-.3.018-.374.024Z" transform="translate(-639.731 -66.624)" fill="#fff"/>
            <path id="Path_1468" data-name="Path 1468" d="M675.793,68.241c.273,0,.858-.006,1.136-.036a.636.636,0,0,0-.026.186.532.532,0,0,0,.026.182c-.132-.012-.271-.021-.4-.024-.246-.006-.493-.012-.734-.012v1.426c.136,0,.812-.015,1.258-.038a.454.454,0,0,0-.023.172.569.569,0,0,0,.023.192c-.318-.022-.631-.031-.969-.031-.31,0-.647.009-.981.031.008-.222.019-.437.024-.658.008-.307.021-.947.021-1.19,0-.222-.013-1.236-.045-1.762.252.017.672.031.953.031.242,0,.587-.02.969-.031a.577.577,0,0,0-.028.165.6.6,0,0,0,.028.2l-.5-.026c-.2-.013-.246-.013-.734-.013Z" transform="translate(-639.699 -66.624)" fill="#fff"/>
          </g>
          <g id="Group_15396" data-name="Group 15396" transform="translate(10.552 27.44)">
            <path id="Path_1469" data-name="Path 1469" d="M641.987,50.643l1.622,2.329a4.911,4.911,0,0,0,.75.856l-.029.056a8.125,8.125,0,0,0-1.089-.056,9.832,9.832,0,0,0-1.1.056,6.513,6.513,0,0,0-.605-1l-1.42-2.008a.059.059,0,0,0-.044-.019c-.007,0-.007.03-.007.06,0,.891.007,1.415.029,2.117.013.287.013.573.05.848a7.45,7.45,0,0,0-.927-.056c-.273,0-.694.03-.955.056.093-.874.087-1.767.087-3.677a23.725,23.725,0,0,0-.087-2.923c.461.04.881.061,1.142.061.646,0,1.307-.061,1.955-.061.372,0,2.277,0,2.277,1.695A1.765,1.765,0,0,1,641.987,50.643Zm-1.92-.3c.08.005.188.005.311.005.388,0,1.464,0,1.464-1.26,0-1.088-.76-1.148-1.36-1.148a2.135,2.135,0,0,0-.393.024Z" transform="translate(-629.094 -47.21)" fill="#fff"/>
            <path id="Path_1470" data-name="Path 1470" d="M647.619,47.211a3.046,3.046,0,0,0,.544.054,2.7,2.7,0,0,0,.514-.054c.984,2.622,2.184,5.285,2.83,6.674a6.611,6.611,0,0,0-.98-.056,7.18,7.18,0,0,0-1.109.056,19.772,19.772,0,0,0-.669-1.873c-.356-.01-.711-.029-1.087-.029s-.795.009-1.2.029a17.407,17.407,0,0,0-.63,1.873,4.024,4.024,0,0,0-.573-.056,2.571,2.571,0,0,0-.587.056C645.313,52.658,646.9,49.086,647.619,47.211Zm.035,1.994-.891,2.085c.283.016.564.027.847.027s.587-.016.877-.027Z" transform="translate(-629.039 -47.211)" fill="#fff"/>
            <path id="Path_1471" data-name="Path 1471" d="M660.571,51.633c.093.75.217,1.511.378,2.251a6.251,6.251,0,0,0-.954-.069,6.817,6.817,0,0,0-1,.069,19.541,19.541,0,0,0-.167-2.075c-.04-.367-.229-1.985-.258-2.319-.724,1.34-.8,1.516-1.5,3-.408.875-.462,1-.619,1.389a2.979,2.979,0,0,0-.376-.026,1.9,1.9,0,0,0-.385.026,11.193,11.193,0,0,0-.6-1.437c-.471-.976-.953-1.956-1.441-2.927-.148.931-.284,1.872-.367,2.806-.038.5-.1,1.006-.1,1.558a2.769,2.769,0,0,0-.561-.056,4.8,4.8,0,0,0-.585.056c.1-.369.177-.731.244-1.122L653,48.389a7.515,7.515,0,0,0,.115-1.105,6.731,6.731,0,0,0,.761.061c.222,0,.493-.04.689-.061.232.713,1.538,3.566,1.989,4.412.583-1.121,1.151-2.257,1.671-3.39a10.246,10.246,0,0,0,.422-1.022,3.908,3.908,0,0,0,.751.061,3.118,3.118,0,0,0,.645-.061c.031.363.074.892.116,1.238Z" transform="translate(-628.976 -47.21)" fill="#fff"/>
            <path id="Path_1472" data-name="Path 1472" d="M665.674,48.8a1.287,1.287,0,0,0-1.356-.936c-.21,0-1.18.02-1.18.828,0,.6.469.773,2.013,1.331a2.192,2.192,0,0,1,1,.733,1.763,1.763,0,0,1,.313,1.075c0,1.235-.97,2.168-2.779,2.168a4.068,4.068,0,0,1-2-.466,5.03,5.03,0,0,0,.216-1.311h.264a1.478,1.478,0,0,0,1.59,1.109c.878,0,1.255-.465,1.255-.948,0-.534-.368-.688-1.643-1.191-.95-.382-1.6-.875-1.6-1.918,0-1.312.962-2.056,2.54-2.056a3.9,3.9,0,0,1,1.934.456,3.086,3.086,0,0,0-.344,1.126Z" transform="translate(-628.892 -47.211)" fill="#fff"/>
            <path id="Path_1473" data-name="Path 1473" d="M669.607,47.211a3.066,3.066,0,0,0,.548.054,2.657,2.657,0,0,0,.508-.054c.984,2.622,2.186,5.285,2.833,6.674a6.66,6.66,0,0,0-.98-.056,7.167,7.167,0,0,0-1.109.056,19.362,19.362,0,0,0-.671-1.873c-.354-.01-.709-.029-1.086-.029s-.794.009-1.2.029a16.6,16.6,0,0,0-.627,1.873,4.173,4.173,0,0,0-.577-.056,2.526,2.526,0,0,0-.583.056C667.3,52.658,668.891,49.086,669.607,47.211Zm.032,1.994-.886,2.085c.28.016.56.027.848.027s.581-.016.873-.027Z" transform="translate(-628.849 -47.211)" fill="#fff"/>
            <path id="Path_1474" data-name="Path 1474" d="M676.8,52.808a8.24,8.24,0,0,0,.1,1.076,9.4,9.4,0,0,0-.983-.056c-.208,0-.629.018-.984.056a8.731,8.731,0,0,0,.1-1.558V51.07l-1.517-2.549c-.194-.325-.51-.81-.827-1.238.385.029.777.061,1.161.061.357,0,.712-.031,1.065-.061.179.42.4.85.653,1.316.121.226.7,1.233.8,1.442a24.19,24.19,0,0,0,1.422-2.759,4.353,4.353,0,0,0,.666.061,3.738,3.738,0,0,0,.616-.061,28.379,28.379,0,0,0-2.276,3.678Z" transform="translate(-628.797 -47.21)" fill="#fff"/>
            <path id="Path_1475" data-name="Path 1475" d="M633.156,58.222a1.286,1.286,0,0,0-1.361-.932c-.206,0-1.178.017-1.178.827,0,.6.471.772,2.018,1.328a2.233,2.233,0,0,1,1,.733,1.743,1.743,0,0,1,.314,1.073c0,1.237-.972,2.168-2.782,2.168a4.079,4.079,0,0,1-2-.465,4.951,4.951,0,0,0,.222-1.309h.26a1.481,1.481,0,0,0,1.587,1.113c.882,0,1.258-.469,1.258-.953,0-.532-.366-.682-1.64-1.19-.95-.378-1.6-.871-1.6-1.919,0-1.312.96-2.052,2.536-2.052a3.882,3.882,0,0,1,1.936.454,3.234,3.234,0,0,0-.346,1.125Z" transform="translate(-629.173 -47.13)" fill="#fff"/>
            <path id="Path_1476" data-name="Path 1476" d="M636.934,63.306a8.175,8.175,0,0,0-.953-.055,8.909,8.909,0,0,0-.982.055c.1-.836.1-2.975.1-3.432,0-.985-.009-2.227-.093-3.167a7.358,7.358,0,0,0,.983.055,7.842,7.842,0,0,0,.948-.055c-.072,1.084-.1,2.359-.1,3.441C636.838,61.054,636.838,62.469,636.934,63.306Z" transform="translate(-629.123 -47.129)" fill="#fff"/>
            <path id="Path_1477" data-name="Path 1477" d="M646.457,61.054c.094.749.219,1.511.371,2.251a6.027,6.027,0,0,0-.951-.066,7.244,7.244,0,0,0-1,.066,18.835,18.835,0,0,0-.164-2.07c-.041-.371-.232-1.989-.263-2.32-.72,1.342-.794,1.51-1.494,3-.405.874-.461,1-.617,1.387a2.811,2.811,0,0,0-.373-.028,2.005,2.005,0,0,0-.388.028,11.034,11.034,0,0,0-.6-1.432c-.468-.98-.95-1.962-1.443-2.932-.142.932-.279,1.875-.363,2.8-.041.5-.094,1.013-.094,1.561a3.008,3.008,0,0,0-.564-.055,4.345,4.345,0,0,0-.585.055c.092-.371.177-.731.238-1.119l.722-4.375A8.06,8.06,0,0,0,639,56.706a6.017,6.017,0,0,0,.762.055c.218,0,.494-.035.691-.055.234.716,1.537,3.569,1.987,4.416.581-1.126,1.149-2.255,1.674-3.4a9.638,9.638,0,0,0,.418-1.018,3.756,3.756,0,0,0,.75.055,3.3,3.3,0,0,0,.648-.055c.034.367.076.9.115,1.238Z" transform="translate(-629.097 -47.129)" fill="#fff"/>
            <path id="Path_1478" data-name="Path 1478" d="M647.845,57.963a8.476,8.476,0,0,0-.092-1.257c.9.038,1.774.076,2.424.076.574,0,1.119-.02,1.85-.076a2.053,2.053,0,0,0-.053.439,1.7,1.7,0,0,0,.053.476,16.566,16.566,0,0,0-2.371-.125c-.02.346-.034.678-.034,1.02v.967a17.312,17.312,0,0,0,2.33-.1,2.408,2.408,0,0,0-.05.458,3.544,3.544,0,0,0,.05.445,22.081,22.081,0,0,0-2.33-.076V62.1c0,.144.014.276.022.411A15.4,15.4,0,0,0,652,62.365a2.259,2.259,0,0,0-.054.447,2.506,2.506,0,0,0,.054.493c-.669-.055-1.64-.074-2.36-.074-.675,0-1.351.037-1.937.074a12.272,12.272,0,0,0,.135-1.9Z" transform="translate(-629.013 -47.129)" fill="#fff"/>
            <path id="Path_1479" data-name="Path 1479" d="M655.191,58.545a15.565,15.565,0,0,0-.1-1.839,8.245,8.245,0,0,0,.972.055c.8,0,1.6-.055,2.4-.055,2,0,3.553,1.067,3.553,3.179,0,1.852-1.276,3.42-3.922,3.42-.362,0-1.43-.055-1.709-.055-.188,0-.806.006-1.3.055.063-.623.1-1.256.1-1.88Zm1.738,3.306c0,.236.011.485.021.723a4.414,4.414,0,0,0,.689.044,2.473,2.473,0,0,0,1.767-.577,3.255,3.255,0,0,0,.73-2.169,2.59,2.59,0,0,0-.795-2.047,2.309,2.309,0,0,0-1.544-.436c-.536,0-.709.013-.836.019,0,.2-.032.943-.032,1.264Z" transform="translate(-628.949 -47.129)" fill="#fff"/>
            <path id="Path_1480" data-name="Path 1480" d="M664.91,56.633a2.666,2.666,0,0,0,.541.055,2.361,2.361,0,0,0,.513-.055c.981,2.622,2.184,5.286,2.831,6.673a6.519,6.519,0,0,0-.978-.055,7.2,7.2,0,0,0-1.107.055c-.31-.987-.56-1.587-.673-1.873-.354-.007-.712-.027-1.09-.027s-.79.008-1.2.027a17.128,17.128,0,0,0-.629,1.873,3.792,3.792,0,0,0-.574-.055,2.634,2.634,0,0,0-.588.055C662.6,62.083,664.186,58.5,664.91,56.633Zm.03,1.994-.89,2.083c.28.021.566.03.847.03s.584-.017.879-.03Z" transform="translate(-628.89 -47.13)" fill="#fff"/>
            <path id="Path_1481" data-name="Path 1481" d="M673.211,60.063l1.617,2.33a4.977,4.977,0,0,0,.752.857l-.031.055a7.9,7.9,0,0,0-1.084-.055,10.333,10.333,0,0,0-1.1.055,6.586,6.586,0,0,0-.6-1L671.34,60.3a.06.06,0,0,0-.044-.018c-.005,0-.005.031-.005.057,0,.9.005,1.416.026,2.119a8.194,8.194,0,0,0,.057.846,7.923,7.923,0,0,0-.93-.055c-.27,0-.691.027-.952.055.092-.875.081-1.767.081-3.677a25.481,25.481,0,0,0-.081-2.922c.461.038.878.055,1.14.055.645,0,1.305-.055,1.955-.055.374,0,2.276,0,2.276,1.7A1.767,1.767,0,0,1,673.211,60.063Zm-1.92-.3c.083.005.187.005.313.005.384,0,1.464,0,1.464-1.264,0-1.081-.763-1.141-1.363-1.141a2.7,2.7,0,0,0-.4.019Z" transform="translate(-628.825 -47.129)" fill="#fff"/>
            <path id="Path_1482" data-name="Path 1482" d="M679.628,59.787c.42.065,1.791.275,1.791,1.645,0,1.151-1.08,1.873-2.6,1.873-.279,0-1.116-.055-1.556-.055-.332,0-.689.027-1.048.055.068-.787.081-1.814.081-2.644,0-.91,0-1.835-.025-2.747-.02-.609-.062-.921-.091-1.209a4.808,4.808,0,0,0,.895.055c.511,0,1.2-.055,1.882-.055,1.252,0,2.267.532,2.267,1.563,0,1.119-1.148,1.376-1.6,1.473Zm-1.6-.266a1.382,1.382,0,0,0,.213.011,1.093,1.093,0,0,0,1.224-1.129c0-.746-.388-1.077-1.193-1.077-.061,0-.123,0-.226.006,0,.115-.017.668-.017.793Zm0,.626c0,1.552,0,1.864.026,2.483.094.009.2.02.31.02a1.14,1.14,0,0,0,1.2-1.283C679.566,60.368,679,60.147,678.027,60.147Z" transform="translate(-628.767 -47.129)" fill="#fff"/>
            <path id="Path_1483" data-name="Path 1483" d="M685.633,62.231a9.241,9.241,0,0,0,.1,1.074,9.845,9.845,0,0,0-.983-.055c-.207,0-.62.019-.98.055a8.936,8.936,0,0,0,.095-1.561V60.492l-1.516-2.549c-.2-.323-.511-.808-.824-1.238.385.032.772.055,1.159.055.357,0,.711-.023,1.068-.055.177.421.4.848.645,1.315.128.226.7,1.234.8,1.444a23.729,23.729,0,0,0,1.423-2.76,4.11,4.11,0,0,0,.667.055,3.435,3.435,0,0,0,.617-.055,28.281,28.281,0,0,0-2.278,3.683Z" transform="translate(-628.721 -47.129)" fill="#fff"/>
          </g>
          <path id="Path_1484" data-name="Path 1484" d="M696.124,22.644V64.794a11.3,11.3,0,0,1-11.293,11.293H632.638A11.3,11.3,0,0,1,621.35,64.794V33.939a11.3,11.3,0,0,1,11.289-11.3h63.486m2.639-2.638H632.638a13.946,13.946,0,0,0-13.927,13.933V64.794a13.944,13.944,0,0,0,13.927,13.93h52.193a13.946,13.946,0,0,0,13.931-13.93V20.006Z" transform="translate(-618.711 -20.006)" fill="#fff"/>
        </g>
      </g>
    </g>
  </g>
</svg>
